<svg id="svg" version="1.1" xmlns="http://www.w3.org/2000/svg" xmlns:xlink="http://www.w3.org/1999/xlink" width="400" height="400.6259780907668" viewBox="0, 0, 400,400.6259780907668"><g id="svgg"><path id="path0" d="M121.200 67.464 C 88.472 69.857,77.649 116.452,105.503 135.043 C 112.985 140.037,113.530 140.116,142.200 140.376 C 166.608 140.596,167.028 140.614,168.800 141.469 C 178.681 146.241,180.244 161.508,171.608 168.900 C 168.317 171.717,170.030 171.599,132.429 171.613 C 94.962 171.628,96.309 171.538,93.062 174.225 C 87.057 179.194,89.086 189.843,96.464 192.075 C 98.993 192.840,166.116 192.841,170.200 192.075 C 193.147 187.776,205.518 159.306,193.697 138.000 C 189.361 130.186,182.680 124.229,175.200 121.508 C 170.576 119.825,170.889 119.845,145.400 119.620 L 120.600 119.400 118.610 118.421 C 107.962 113.181,107.736 94.966,118.252 89.595 C 120.143 88.629,120.505 88.594,130.600 88.400 L 141.000 88.200 141.000 77.800 L 141.000 67.400 132.000 67.366 C 127.050 67.348,122.190 67.392,121.200 67.464 M237.600 67.592 C 223.605 69.244,212.212 79.526,208.116 94.200 L 207.000 98.200 207.001 130.000 L 207.002 161.800 208.053 165.600 C 211.705 178.798,220.674 188.124,233.137 191.683 C 236.785 192.724,280.768 193.306,288.400 192.414 C 318.488 188.896,330.192 150.233,307.680 128.725 C 300.623 121.983,294.043 119.619,282.300 119.607 C 274.871 119.599,274.859 119.593,276.940 117.162 C 283.903 109.027,275.639 97.236,265.371 100.657 C 263.644 101.232,262.032 102.673,252.339 112.302 C 234.376 130.147,234.387 129.658,251.543 146.929 C 263.919 159.389,264.481 159.803,269.000 159.793 C 278.088 159.773,282.853 149.746,277.015 142.926 C 274.779 140.313,274.810 140.298,281.900 140.463 C 289.095 140.630,290.790 141.160,293.790 144.179 C 301.511 151.950,298.708 168.139,289.150 170.978 C 285.954 171.927,239.850 171.909,237.057 170.958 C 234.355 170.037,231.245 167.032,229.579 163.732 L 228.200 161.000 228.200 130.000 L 228.200 99.000 229.368 96.617 C 230.783 93.731,233.039 91.207,235.540 89.712 L 237.400 88.600 263.000 88.600 L 288.600 88.600 290.625 89.669 C 295.033 91.995,297.609 96.373,298.418 102.908 C 299.212 109.320,301.155 112.208,305.714 113.752 C 314.013 116.562,320.326 110.186,319.209 100.122 C 317.450 84.259,307.530 72.333,292.600 68.130 C 289.973 67.390,243.183 66.932,237.600 67.592 M147.470 67.864 C 147.019 68.314,147.151 87.522,147.606 87.804 C 147.921 87.999,194.603 88.219,197.707 88.041 C 198.366 88.003,198.407 87.317,198.307 77.900 L 198.200 67.800 172.970 67.697 C 159.093 67.640,147.618 67.715,147.470 67.864 M236.600 203.875 C 222.857 205.895,211.928 216.364,207.865 231.400 C 206.629 235.972,206.503 295.327,207.718 300.400 C 210.892 313.652,219.110 323.055,231.208 327.277 L 235.000 328.600 263.000 328.600 C 290.500 328.600,291.050 328.585,293.800 327.742 C 306.606 323.815,315.374 314.096,318.646 300.200 C 319.800 295.303,319.805 237.137,318.653 232.200 C 315.437 218.422,306.233 208.347,293.400 204.558 C 291.099 203.879,240.699 203.273,236.600 203.875 M98.600 208.601 C 98.380 208.687,97.452 208.949,96.537 209.184 C 94.400 209.733,91.122 212.662,90.145 214.897 C 89.177 217.109,88.747 253.866,89.681 254.459 C 90.756 255.141,109.888 254.868,110.157 254.167 C 110.291 253.819,110.400 248.149,110.400 241.567 L 110.400 229.600 138.254 229.600 C 168.602 229.600,167.851 229.546,171.062 231.963 C 179.901 238.619,179.042 254.152,169.544 259.413 L 167.400 260.600 157.900 260.732 L 148.400 260.863 148.400 271.232 L 148.400 281.600 158.174 281.600 C 174.635 281.600,181.393 279.014,189.286 269.698 C 207.100 248.670,197.224 216.037,171.000 209.277 C 168.764 208.701,99.996 208.059,98.600 208.601 M289.085 225.249 C 292.368 226.453,295.877 230.056,297.217 233.600 L 298.200 236.200 298.200 266.600 L 298.200 297.000 296.833 299.780 C 295.268 302.964,292.882 305.475,290.117 306.848 L 288.200 307.800 263.200 307.800 L 238.200 307.800 236.370 306.898 C 233.242 305.357,231.325 303.394,229.700 300.069 L 228.200 297.000 228.200 266.200 L 228.200 235.400 229.447 232.800 C 231.246 229.051,234.203 226.252,237.600 225.083 C 240.843 223.966,285.985 224.112,289.085 225.249 M89.282 306.893 C 89.389 324.080,89.465 325.946,90.120 327.400 C 93.842 335.677,104.972 336.001,109.263 327.956 L 110.200 326.200 110.200 307.200 L 110.200 288.200 99.682 288.093 L 89.163 287.987 89.282 306.893 " stroke="none" fill="#074669" fill-rule="evenodd"></path><path id="path1" d="M0.000 200.200 L 0.000 400.400 200.000 400.400 L 400.000 400.400 400.000 200.200 L 400.000 0.000 200.000 0.000 L 0.000 0.000 0.000 200.200 M172.862 66.777 C 185.038 66.745,195.291 66.563,195.647 66.373 C 196.003 66.183,196.418 66.151,196.569 66.302 C 196.719 66.453,197.238 66.581,197.721 66.588 C 198.752 66.602,199.424 74.654,199.013 82.076 C 198.883 84.436,198.954 86.048,199.194 86.196 C 199.701 86.510,199.513 87.741,198.832 88.561 C 198.186 89.340,147.469 89.559,146.991 88.785 C 146.627 88.196,146.628 67.401,146.993 66.812 C 147.158 66.544,147.727 66.407,148.256 66.509 C 148.786 66.610,149.321 66.528,149.445 66.327 C 149.576 66.115,149.893 66.145,150.198 66.398 C 150.567 66.704,157.361 66.818,172.862 66.777 M141.486 67.100 C 141.659 67.485,141.710 72.570,141.600 78.400 L 141.400 89.000 130.800 89.202 C 120.889 89.390,120.095 89.460,118.576 90.274 C 116.355 91.465,112.400 95.901,112.400 97.201 C 112.400 97.553,112.175 98.065,111.900 98.340 C 110.578 99.662,111.607 110.974,113.179 112.400 C 113.301 112.510,114.055 113.410,114.854 114.400 C 116.365 116.269,118.800 117.997,118.800 117.199 C 118.800 116.954,118.983 116.866,119.207 117.004 C 119.430 117.142,119.526 117.396,119.420 117.568 C 118.788 118.590,123.082 118.801,145.046 118.824 C 157.561 118.837,168.610 119.001,169.600 119.188 C 172.420 119.722,175.438 120.650,177.324 121.563 C 178.275 122.023,179.266 122.400,179.526 122.400 C 179.787 122.400,180.000 122.580,180.000 122.800 C 180.000 123.020,180.235 123.200,180.521 123.200 C 181.063 123.200,184.380 125.466,184.894 126.187 C 185.056 126.414,185.191 126.490,185.194 126.355 C 185.219 125.334,193.600 135.342,193.600 136.394 C 193.600 136.617,193.777 136.800,193.992 136.800 C 194.208 136.800,194.501 137.264,194.644 137.831 C 194.786 138.399,195.296 139.704,195.777 140.731 C 196.777 142.869,197.754 146.011,198.410 149.200 C 199.241 153.241,198.398 166.162,197.227 167.333 C 196.992 167.568,196.800 168.139,196.800 168.601 C 196.800 169.064,196.372 170.333,195.849 171.421 C 195.326 172.510,194.784 173.670,194.645 174.000 C 194.505 174.330,194.035 175.140,193.600 175.800 C 193.165 176.460,192.682 177.270,192.527 177.600 C 192.372 177.930,192.055 178.419,191.822 178.686 C 190.757 179.913,190.329 180.470,189.398 181.841 C 188.849 182.650,188.400 183.203,188.400 183.069 C 188.400 182.936,187.898 183.318,187.284 183.918 C 183.983 187.145,176.750 191.600,174.813 191.600 C 174.454 191.600,173.989 191.767,173.780 191.972 C 172.068 193.646,100.047 194.267,95.839 192.643 C 86.814 189.163,86.410 175.998,95.200 171.849 C 96.982 171.009,97.357 170.998,132.200 170.800 C 154.453 170.674,167.694 170.453,168.200 170.200 C 171.297 168.652,174.582 165.033,175.375 162.295 C 175.582 161.583,175.942 160.872,176.175 160.715 C 176.754 160.326,176.736 152.294,176.155 151.561 C 175.910 151.253,175.587 150.486,175.437 149.859 C 174.986 147.973,172.213 144.620,169.732 142.960 L 167.400 141.400 142.800 141.168 C 129.270 141.041,117.660 140.807,117.000 140.649 C 113.883 139.903,112.350 139.361,109.200 137.890 C 107.330 137.016,105.170 135.810,104.400 135.209 C 103.630 134.608,102.750 134.203,102.444 134.310 C 102.105 134.428,101.998 134.327,102.168 134.052 C 102.344 133.766,102.107 133.598,101.524 133.594 C 100.916 133.590,100.771 133.479,101.098 133.271 C 101.648 132.922,98.162 129.305,97.478 129.516 C 97.271 129.580,97.198 129.383,97.315 129.078 C 97.432 128.774,97.184 128.276,96.764 127.974 C 96.344 127.671,96.000 127.238,96.000 127.010 C 96.000 126.783,95.370 125.711,94.600 124.628 C 93.830 123.545,93.200 122.421,93.200 122.130 C 93.200 121.838,93.020 121.600,92.800 121.600 C 92.580 121.600,92.400 121.276,92.400 120.880 C 92.400 120.484,92.240 119.989,92.044 119.780 C 91.722 119.435,91.062 117.492,89.539 112.400 C 88.851 110.102,88.780 96.398,89.451 95.559 C 89.698 95.252,90.022 94.149,90.173 93.109 C 90.323 92.069,90.616 91.114,90.823 90.986 C 91.030 90.858,91.200 90.490,91.200 90.168 C 91.200 89.340,93.576 84.497,94.893 82.640 C 95.502 81.782,96.000 80.747,96.000 80.340 C 96.000 79.933,96.162 79.645,96.359 79.700 C 96.557 79.755,97.772 78.705,99.059 77.366 C 107.109 68.997,112.221 67.158,128.400 66.808 C 134.890 66.668,140.419 66.519,140.686 66.476 C 140.953 66.434,141.313 66.715,141.486 67.100 M292.600 67.403 C 296.540 68.225,303.147 71.359,305.557 73.548 C 306.130 74.069,307.157 74.924,307.837 75.447 C 308.518 75.971,309.937 77.475,310.992 78.789 C 312.046 80.104,313.062 81.085,313.250 80.969 C 313.437 80.853,313.477 81.056,313.337 81.420 C 313.198 81.783,313.251 82.198,313.455 82.340 C 313.914 82.661,316.400 86.561,316.400 86.961 C 316.400 87.120,316.827 88.185,317.348 89.326 C 317.870 90.467,318.426 92.165,318.584 93.100 C 318.741 94.035,319.001 94.800,319.160 94.800 C 319.570 94.800,319.800 97.836,319.800 103.229 C 319.800 110.983,316.166 114.927,309.000 114.948 C 305.358 114.959,300.400 112.746,300.400 111.109 C 300.400 110.518,299.323 109.613,298.983 109.919 C 298.812 110.074,298.797 109.982,298.949 109.716 C 299.102 109.450,299.060 108.910,298.856 108.516 C 298.351 107.540,297.705 104.322,297.405 101.282 C 296.935 96.524,293.730 91.972,289.488 90.040 C 286.898 88.860,239.787 88.755,236.959 89.922 C 234.269 91.033,230.000 95.497,230.000 97.199 C 230.000 97.551,229.783 98.057,229.518 98.322 C 228.046 99.794,228.049 161.416,229.521 161.907 C 229.785 161.995,230.000 162.405,230.000 162.819 C 230.000 163.233,230.540 164.187,231.200 164.939 C 231.860 165.691,232.400 166.507,232.400 166.753 C 232.400 166.999,232.605 167.200,232.856 167.200 C 233.107 167.200,233.553 167.515,233.848 167.900 C 234.319 168.515,234.439 168.527,234.830 168.000 C 235.209 167.490,235.242 167.505,235.051 168.099 C 234.776 168.952,236.140 169.932,238.291 170.428 C 240.367 170.905,285.712 170.877,288.131 170.396 C 289.303 170.163,290.359 169.656,290.817 169.106 C 291.233 168.608,291.579 168.363,291.587 168.562 C 291.609 169.179,293.200 167.512,293.200 166.871 C 293.200 166.539,293.310 166.376,293.444 166.510 C 293.819 166.886,295.910 164.413,296.203 163.247 C 296.346 162.675,296.671 162.080,296.925 161.923 C 298.032 161.239,297.517 151.571,296.239 149.044 C 293.443 143.514,290.289 141.622,283.400 141.344 C 277.815 141.118,277.097 141.359,278.282 143.059 C 283.434 150.450,278.039 160.629,269.027 160.522 C 264.199 160.465,263.572 160.071,255.333 151.910 C 250.554 147.176,247.896 144.817,247.571 145.018 C 247.244 145.220,247.178 145.159,247.377 144.837 C 247.755 144.225,246.454 142.727,245.847 143.074 C 245.601 143.214,245.533 143.182,245.695 143.003 C 245.857 142.824,244.671 141.298,243.060 139.612 C 238.645 134.991,237.555 131.590,238.811 126.355 C 239.540 123.315,261.625 101.045,265.054 99.891 C 268.235 98.820,274.800 99.496,274.800 100.894 C 274.800 101.062,275.051 101.200,275.359 101.200 C 276.153 101.200,278.242 103.697,279.192 105.783 C 280.768 109.243,279.851 115.948,277.514 118.051 C 276.842 118.656,277.310 118.717,284.095 118.914 C 290.995 119.114,293.401 119.473,296.600 120.778 C 297.040 120.957,298.210 121.430,299.200 121.827 C 300.190 122.225,301.284 122.786,301.631 123.075 C 301.979 123.364,302.474 123.600,302.731 123.600 C 302.989 123.600,303.200 123.763,303.200 123.963 C 303.200 124.162,303.588 124.224,304.063 124.100 C 304.653 123.945,304.835 124.020,304.639 124.336 C 304.357 124.793,306.206 126.735,307.000 126.815 C 307.220 126.837,308.480 128.126,309.800 129.679 C 311.120 131.231,312.591 132.923,313.069 133.438 C 313.547 133.953,314.066 134.785,314.223 135.287 C 314.380 135.789,314.625 136.290,314.768 136.400 C 315.555 137.006,317.936 142.593,318.689 145.600 C 321.845 158.208,318.642 173.443,311.300 180.744 C 310.519 181.521,310.042 182.332,310.170 182.665 C 310.291 182.982,310.224 183.138,310.020 183.012 C 309.816 182.886,308.917 183.501,308.022 184.379 C 305.050 187.292,297.686 191.600,295.679 191.600 C 295.284 191.600,294.789 191.771,294.580 191.979 C 292.374 194.180,235.487 194.226,231.285 192.030 C 230.908 191.833,229.430 191.195,228.000 190.612 C 222.530 188.383,217.384 184.132,213.100 178.303 C 212.495 177.480,212.000 176.625,212.000 176.403 C 212.000 176.182,211.865 176.000,211.700 176.000 C 211.411 176.000,209.397 171.918,208.428 169.368 C 206.649 164.691,206.664 164.985,206.513 131.894 C 206.368 100.419,206.456 97.730,207.788 93.000 C 208.159 91.680,208.529 90.285,208.609 89.901 C 208.689 89.516,209.034 88.801,209.377 88.312 C 209.720 87.822,210.000 87.089,210.000 86.682 C 210.000 86.276,210.225 85.692,210.500 85.385 C 211.661 84.091,212.000 83.614,212.000 83.275 C 212.000 83.078,212.450 82.431,213.000 81.838 C 213.550 81.244,214.005 80.633,214.011 80.479 C 214.018 80.326,214.738 79.397,215.611 78.414 C 216.485 77.432,217.200 76.487,217.200 76.314 C 217.200 76.142,217.476 76.000,217.813 76.000 C 218.149 76.000,218.520 75.753,218.636 75.451 C 218.752 75.149,219.691 74.304,220.723 73.572 C 221.755 72.840,222.690 72.120,222.800 71.971 C 223.156 71.491,230.708 68.000,231.391 68.000 C 231.755 68.000,232.446 67.784,232.926 67.519 C 235.185 66.275,286.715 66.175,292.600 67.403 M288.622 203.217 C 291.447 203.447,293.949 203.769,294.180 203.933 C 294.411 204.098,295.680 204.579,297.000 205.002 C 302.006 206.607,309.817 212.672,313.090 217.494 C 315.572 221.152,318.800 228.403,318.800 230.322 C 318.800 230.717,319.025 231.265,319.300 231.540 C 319.692 231.932,319.800 239.269,319.800 265.520 C 319.800 302.311,319.888 300.847,317.331 306.750 C 316.819 307.932,316.400 309.147,316.400 309.450 C 316.400 309.752,316.220 310.000,316.000 310.000 C 315.780 310.000,315.600 310.201,315.600 310.448 C 315.600 311.669,312.190 316.241,308.513 319.948 C 306.251 322.229,304.400 323.982,304.400 323.843 C 304.400 323.704,303.651 324.063,302.736 324.640 C 300.584 325.999,296.121 328.000,295.243 328.000 C 294.867 328.000,294.367 328.193,294.131 328.429 C 293.243 329.317,281.773 329.661,258.400 329.502 L 234.600 329.340 231.378 328.267 C 227.611 327.013,221.811 323.793,219.512 321.681 C 216.220 318.656,214.000 316.174,214.000 315.519 C 214.000 315.343,213.719 315.200,213.376 315.200 C 213.033 315.200,212.864 315.020,213.000 314.800 C 213.136 314.580,213.060 314.400,212.831 314.400 C 212.602 314.400,212.304 313.957,212.168 313.416 C 212.033 312.875,211.669 312.223,211.361 311.967 C 211.052 311.711,210.800 311.164,210.800 310.751 C 210.800 310.338,210.620 310.000,210.400 310.000 C 210.180 310.000,210.000 309.802,210.000 309.560 C 210.000 309.319,209.754 308.554,209.454 307.860 C 206.460 300.945,206.600 302.982,206.600 266.200 C 206.600 239.267,206.703 232.660,207.147 231.200 C 207.448 230.210,207.964 228.500,208.295 227.400 C 208.626 226.300,209.085 225.040,209.315 224.600 C 211.181 221.028,211.757 219.731,211.668 219.300 C 211.611 219.025,211.798 218.799,212.082 218.797 C 212.367 218.796,213.050 218.122,213.600 217.301 C 214.874 215.399,221.556 208.800,222.209 208.800 C 222.480 208.800,222.909 208.550,223.162 208.245 C 224.639 206.467,232.274 203.675,236.877 203.230 C 241.872 202.747,282.714 202.737,288.622 203.217 M170.154 208.394 C 170.377 208.617,171.109 208.801,171.780 208.802 C 172.451 208.804,173.516 209.074,174.146 209.402 C 174.776 209.731,175.537 210.000,175.837 210.000 C 176.137 210.000,177.421 210.568,178.691 211.261 C 179.961 211.955,181.677 212.890,182.505 213.338 C 184.416 214.374,190.018 219.831,191.483 222.084 C 192.097 223.028,192.824 224.038,193.099 224.329 C 193.375 224.619,193.600 225.114,193.600 225.429 C 193.600 225.743,193.745 226.000,193.923 226.000 C 194.101 226.000,194.565 226.765,194.954 227.700 C 195.344 228.635,195.823 229.760,196.020 230.200 C 198.848 236.517,199.631 253.509,197.237 256.581 C 197.057 256.811,196.781 257.540,196.624 258.200 C 194.512 267.048,184.146 277.781,175.000 280.590 C 169.212 282.368,168.568 282.433,158.000 282.314 L 147.800 282.200 147.693 271.649 C 147.618 264.200,147.720 260.937,148.042 260.549 C 148.404 260.114,150.348 260.000,157.438 260.000 C 168.778 260.000,171.303 259.020,174.401 253.421 C 176.619 249.414,177.536 242.176,176.018 240.658 C 175.788 240.428,175.600 239.850,175.600 239.374 C 175.600 238.898,175.240 238.050,174.800 237.491 C 174.360 236.931,174.000 236.308,174.000 236.105 C 174.000 235.425,169.726 231.647,168.653 231.377 C 168.070 231.231,167.494 230.951,167.373 230.756 C 167.248 230.554,155.080 230.400,139.195 230.400 L 111.236 230.400 110.962 231.861 C 110.811 232.664,110.781 237.929,110.894 243.561 C 111.007 249.192,110.945 254.208,110.757 254.707 L 110.415 255.613 99.707 255.507 L 89.000 255.400 89.000 235.200 L 89.000 215.000 90.144 213.200 C 91.346 211.309,94.333 208.800,95.383 208.800 C 95.722 208.800,96.000 208.630,96.000 208.423 C 96.000 207.648,169.380 207.620,170.154 208.394 M238.478 225.653 C 235.149 226.613,230.774 230.507,230.164 233.053 C 230.013 233.684,229.690 234.452,229.446 234.761 C 227.975 236.616,228.107 296.667,229.584 298.144 C 229.813 298.373,230.000 298.804,230.000 299.101 C 230.000 300.069,232.133 302.423,232.521 301.883 C 232.746 301.572,232.802 301.711,232.679 302.273 C 232.456 303.296,233.894 304.736,236.509 306.111 L 238.200 307.000 263.200 307.000 L 288.200 307.000 289.982 306.064 C 290.962 305.549,292.402 304.451,293.182 303.624 C 297.721 298.814,297.376 301.718,297.509 267.213 L 297.625 237.426 296.721 234.513 C 296.223 232.911,295.678 231.600,295.508 231.600 C 295.339 231.600,295.200 231.360,295.200 231.068 C 295.200 230.775,294.750 230.294,294.200 230.000 C 293.650 229.706,293.200 229.260,293.200 229.009 C 293.200 228.186,289.743 226.097,287.631 225.644 C 285.021 225.084,240.423 225.093,238.478 225.653 M142.600 271.200 L 142.600 281.800 116.080 282.000 C 99.581 282.124,89.416 282.056,89.180 281.820 C 88.765 281.405,88.639 262.086,89.044 261.030 C 89.264 260.457,91.896 260.404,115.944 260.497 L 142.600 260.600 142.600 271.200 M110.299 287.129 C 110.870 287.492,111.137 321.824,110.597 325.400 C 109.024 335.809,94.945 337.982,89.866 328.600 C 88.622 326.302,88.266 287.396,89.486 287.078 C 90.738 286.753,109.779 286.799,110.299 287.129 M310.210 319.848 C 309.853 320.204,309.441 320.374,309.293 320.226 C 309.144 320.078,309.288 319.789,309.612 319.584 C 310.557 318.987,310.913 319.144,310.210 319.848 " stroke="none" fill="#fbfbfb" fill-rule="evenodd"></path><path id="path2" d="M90.100 260.827 C 88.692 261.370,88.682 280.392,90.089 281.377 C 91.319 282.239,141.226 282.332,141.939 281.474 C 142.444 280.865,142.740 261.673,142.256 260.890 C 141.896 260.309,91.604 260.248,90.100 260.827 " stroke="none" fill="#facb0a" fill-rule="evenodd"></path><path id="path3" d="M119.400 67.161 C 118.740 67.311,123.330 67.426,129.600 67.417 L 141.000 67.400 141.000 77.800 L 141.000 88.200 131.000 88.414 L 121.000 88.628 131.200 88.614 L 141.400 88.600 141.400 77.800 L 141.400 67.000 131.000 66.944 C 125.280 66.913,120.060 67.011,119.400 67.161 M147.043 67.433 C 146.909 67.781,146.800 72.446,146.800 77.800 C 146.800 83.154,146.909 87.819,147.043 88.167 C 147.261 88.735,149.906 88.800,172.835 88.800 L 198.385 88.800 198.640 87.781 C 198.781 87.221,198.784 86.651,198.648 86.515 C 198.512 86.378,198.400 86.657,198.400 87.133 C 198.400 87.677,198.139 88.015,197.700 88.041 C 193.624 88.277,147.806 87.966,147.540 87.700 C 147.345 87.505,147.234 82.948,147.293 77.573 L 147.400 67.800 172.555 67.697 C 192.290 67.616,197.844 67.702,198.330 68.097 C 198.856 68.524,198.908 68.489,198.675 67.867 C 198.524 67.464,198.400 67.059,198.400 66.967 C 198.400 66.376,147.271 66.839,147.043 67.433 M237.023 67.147 C 236.375 67.286,248.155 67.400,263.200 67.400 C 278.245 67.400,290.025 67.286,289.377 67.147 C 288.730 67.008,276.950 66.895,263.200 66.895 C 249.450 66.895,237.670 67.008,237.023 67.147 M115.000 67.978 C 104.814 70.495,93.097 81.967,91.078 91.400 C 90.832 92.551,90.839 92.559,91.266 91.600 C 94.745 83.769,96.298 81.290,100.150 77.417 C 104.633 72.909,109.741 69.915,115.600 68.360 C 117.030 67.981,117.750 67.673,117.200 67.676 C 116.650 67.679,115.660 67.815,115.000 67.978 M231.000 68.550 C 225.351 70.396,220.849 73.344,216.638 77.956 C 215.957 78.702,215.213 79.512,214.986 79.756 C 213.312 81.548,209.374 88.307,209.772 88.705 C 209.868 88.802,210.524 87.738,211.229 86.340 C 215.646 77.578,224.412 70.437,233.418 68.264 C 234.728 67.947,235.350 67.677,234.800 67.662 C 234.250 67.648,232.540 68.047,231.000 68.550 M293.200 68.326 C 301.713 70.766,308.748 75.987,313.376 83.298 C 314.455 85.002,315.413 86.320,315.507 86.227 C 315.947 85.786,311.565 79.853,308.656 76.952 C 303.728 72.035,297.336 68.441,292.400 67.810 C 290.849 67.612,290.960 67.683,293.200 68.326 M198.566 77.600 C 198.566 81.670,198.625 83.335,198.698 81.300 C 198.771 79.265,198.771 75.935,198.698 73.900 C 198.625 71.865,198.566 73.530,198.566 77.600 M315.628 87.000 C 315.628 87.220,315.886 87.850,316.200 88.400 C 316.514 88.950,316.772 89.220,316.772 89.000 C 316.772 88.780,316.514 88.150,316.200 87.600 C 315.886 87.050,315.628 86.780,315.628 87.000 M238.000 88.749 C 236.100 89.232,233.758 90.739,232.082 92.557 C 229.699 95.143,229.989 95.377,232.456 92.859 C 236.506 88.723,234.213 89.030,262.800 88.791 L 287.800 88.583 263.400 88.539 C 249.980 88.514,238.550 88.609,238.000 88.749 M118.049 89.706 C 114.775 91.377,111.352 96.146,110.964 99.575 C 110.825 100.803,110.879 100.739,111.357 99.110 C 112.572 94.973,115.517 91.372,119.000 89.767 C 120.100 89.261,120.730 88.838,120.400 88.829 C 120.070 88.819,119.012 89.214,118.049 89.706 M289.800 89.769 C 293.249 91.360,296.309 95.117,297.408 99.110 C 297.760 100.390,297.940 100.677,297.964 100.000 C 298.097 96.254,291.555 88.678,288.313 88.823 C 288.031 88.836,288.700 89.261,289.800 89.769 M208.846 90.439 C 208.601 91.143,208.413 91.918,208.428 92.160 C 208.444 92.402,208.714 91.896,209.030 91.035 C 209.345 90.174,209.533 89.400,209.448 89.315 C 209.362 89.229,209.092 89.735,208.846 90.439 M317.003 90.400 C 317.480 92.025,318.092 92.796,317.797 91.400 C 317.657 90.740,317.356 90.020,317.127 89.800 C 316.840 89.524,316.801 89.711,317.003 90.400 M90.200 94.000 C 90.048 94.691,90.007 95.341,90.109 95.442 C 90.211 95.544,90.409 95.053,90.550 94.350 C 90.691 93.647,90.731 92.998,90.641 92.908 C 90.550 92.817,90.352 93.309,90.200 94.000 M207.659 94.200 C 207.409 95.080,207.220 96.160,207.238 96.600 C 207.256 97.040,207.522 96.500,207.828 95.400 C 208.133 94.300,208.323 93.220,208.248 93.000 C 208.174 92.780,207.908 93.320,207.659 94.200 M318.034 93.600 C 318.046 93.930,318.211 94.560,318.400 95.000 L 318.744 95.800 318.766 95.000 C 318.778 94.560,318.613 93.930,318.400 93.600 C 318.055 93.067,318.015 93.067,318.034 93.600 M229.210 96.977 C 228.765 98.016,228.418 99.346,228.440 99.933 C 228.473 100.812,228.543 100.733,228.837 99.487 C 229.033 98.655,229.478 97.423,229.826 96.750 C 230.174 96.077,230.360 95.427,230.240 95.306 C 230.119 95.186,229.656 95.937,229.210 96.977 M89.336 97.863 C 88.575 102.401,89.610 115.723,90.642 114.691 C 90.738 114.596,90.560 113.366,90.246 111.959 C 89.359 107.973,89.143 104.137,89.574 100.018 C 89.999 95.943,89.863 94.713,89.336 97.863 M319.115 98.400 C 319.260 99.830,319.365 102.346,319.347 103.992 C 319.322 106.282,319.403 106.751,319.693 105.992 C 320.096 104.939,319.796 99.543,319.204 97.200 C 318.954 96.210,318.928 96.562,319.115 98.400 M206.652 100.100 C 206.326 101.315,206.411 159.155,206.740 160.324 C 206.883 160.832,207.000 147.287,207.000 130.224 C 207.000 113.161,206.976 99.200,206.947 99.200 C 206.917 99.200,206.785 99.605,206.652 100.100 M265.997 99.974 C 263.501 100.733,261.668 102.302,252.020 111.937 C 241.555 122.386,239.905 124.229,239.418 126.000 C 239.267 126.550,239.681 126.100,240.338 125.000 C 242.049 122.136,262.530 101.840,264.600 100.957 C 265.480 100.582,267.370 100.148,268.800 99.994 L 271.400 99.714 269.200 99.691 C 267.990 99.679,266.549 99.806,265.997 99.974 M273.419 100.965 C 279.642 103.796,281.412 111.937,276.940 117.162 C 274.859 119.593,274.871 119.599,282.300 119.607 C 286.640 119.611,289.976 119.821,291.772 120.201 C 293.297 120.524,294.616 120.718,294.703 120.631 C 295.320 120.013,288.947 119.234,282.500 119.140 C 279.145 119.091,276.400 118.939,276.400 118.803 C 276.400 118.667,276.868 117.935,277.439 117.178 C 280.664 112.904,280.780 108.446,277.784 103.908 C 276.812 102.435,273.167 99.989,272.000 100.027 C 271.670 100.037,272.308 100.459,273.419 100.965 M298.236 104.000 C 298.643 110.369,303.045 114.800,308.965 114.800 C 313.178 114.800,318.017 111.515,318.982 108.000 C 319.133 107.450,318.706 107.934,318.034 109.075 C 312.606 118.293,300.281 115.209,298.548 104.200 L 298.044 101.000 298.236 104.000 M110.528 104.000 C 110.528 105.430,110.601 106.015,110.689 105.300 C 110.778 104.585,110.778 103.415,110.689 102.700 C 110.601 101.985,110.528 102.570,110.528 104.000 M110.823 107.696 C 110.686 111.786,116.157 118.085,120.800 119.181 C 122.753 119.642,171.160 119.999,169.526 119.540 C 169.017 119.397,158.500 119.262,146.156 119.240 C 133.812 119.218,122.871 119.085,121.845 118.944 C 117.678 118.373,113.443 114.497,111.799 109.748 C 111.275 108.237,110.836 107.313,110.823 107.696 M90.826 115.600 C 90.725 119.428,100.157 132.643,104.579 134.870 C 105.031 135.097,104.410 134.410,103.200 133.342 C 97.547 128.353,94.601 124.276,91.986 117.823 C 91.356 116.270,90.834 115.270,90.826 115.600 M171.600 120.400 C 173.142 120.894,173.964 120.894,173.200 120.400 C 172.870 120.187,172.150 120.027,171.600 120.046 L 170.600 120.080 171.600 120.400 M175.147 121.453 C 175.887 121.776,176.587 121.946,176.702 121.831 C 176.943 121.590,174.982 120.784,174.274 120.833 C 174.013 120.851,174.406 121.130,175.147 121.453 M295.600 121.164 C 295.930 121.350,296.650 121.623,297.200 121.768 L 298.200 122.033 297.200 121.431 C 296.650 121.099,295.930 120.827,295.600 120.826 C 295.067 120.825,295.067 120.862,295.600 121.164 M177.200 122.158 C 177.200 122.245,178.145 122.805,179.300 123.401 C 186.689 127.220,193.941 135.972,196.224 143.825 C 196.582 145.054,196.965 145.968,197.077 145.856 C 197.428 145.506,194.739 138.262,194.012 137.600 C 193.891 137.490,193.434 136.706,192.996 135.857 C 190.454 130.929,177.200 119.435,177.200 122.158 M298.400 122.164 C 298.400 122.254,299.766 123.077,301.436 123.994 C 304.903 125.897,310.034 130.581,312.497 134.092 C 313.391 135.367,314.201 136.332,314.297 136.236 C 314.535 135.999,311.421 131.795,309.426 129.660 C 306.347 126.366,298.400 120.962,298.400 122.164 M238.652 128.100 C 238.330 129.303,238.384 131.216,238.769 132.200 C 238.964 132.699,239.082 131.909,239.082 130.100 C 239.082 126.977,239.025 126.709,238.652 128.100 M239.418 134.000 C 240.194 136.827,261.959 158.702,265.040 159.752 C 268.609 160.968,272.800 160.407,275.598 158.339 C 276.937 157.348,279.449 153.716,279.063 153.329 C 278.931 153.197,278.649 153.544,278.438 154.100 C 276.652 158.799,269.021 161.489,264.400 159.050 C 262.356 157.971,241.768 137.393,240.338 135.000 C 239.681 133.900,239.267 133.450,239.418 134.000 M105.840 135.665 C 106.203 136.252,110.583 138.333,113.890 139.489 L 117.000 140.577 141.800 140.788 L 166.600 141.000 168.640 141.923 C 170.932 142.961,173.374 145.316,174.941 148.000 C 175.519 148.990,175.992 149.620,175.992 149.400 C 175.993 148.400,173.463 144.744,171.914 143.506 C 168.076 140.438,169.859 140.626,142.200 140.376 C 114.292 140.123,115.535 140.254,108.729 136.860 C 107.020 136.008,105.720 135.470,105.840 135.665 M314.675 137.500 C 314.812 137.885,315.061 138.380,315.227 138.600 C 315.394 138.820,316.093 140.350,316.780 142.000 C 317.467 143.650,317.918 144.463,317.783 143.806 C 317.506 142.458,314.966 136.800,314.639 136.800 C 314.521 136.800,314.537 137.115,314.675 137.500 M275.600 140.795 C 275.600 141.058,276.237 142.017,277.015 142.926 C 278.800 145.011,279.769 148.195,279.458 150.955 C 279.306 152.314,279.348 152.732,279.586 152.200 C 280.579 149.980,279.755 146.131,277.606 142.947 C 276.943 141.964,276.400 141.059,276.400 140.935 C 276.400 140.203,287.900 141.089,289.912 141.977 C 293.295 143.470,296.110 147.019,297.544 151.600 L 297.982 153.000 297.773 151.503 C 297.265 147.851,293.841 143.372,290.190 141.584 C 287.880 140.453,275.600 139.788,275.600 140.795 M318.244 146.600 C 318.573 148.071,318.802 148.390,318.794 147.367 C 318.791 146.945,318.605 146.330,318.382 146.000 C 318.085 145.562,318.048 145.724,318.244 146.600 M197.268 147.000 C 197.274 147.440,197.424 148.250,197.600 148.800 L 197.920 149.800 197.932 148.800 C 197.938 148.250,197.789 147.440,197.600 147.000 L 197.256 146.200 197.268 147.000 M319.137 151.000 C 319.470 154.551,319.470 157.411,319.135 161.200 C 318.930 163.524,318.960 163.885,319.270 162.800 C 319.796 160.957,319.806 150.934,319.284 149.400 C 318.968 148.474,318.935 148.838,319.137 151.000 M176.283 151.200 C 177.979 158.681,175.185 166.500,169.678 169.683 L 167.400 171.000 132.200 171.200 L 97.000 171.400 95.101 172.335 C 87.058 176.296,86.971 187.709,94.952 191.920 L 97.000 193.000 133.000 193.000 C 172.829 193.000,171.025 193.107,177.071 190.388 C 185.375 186.653,193.161 178.422,195.778 170.612 C 196.221 169.290,195.759 170.044,193.868 173.726 C 188.865 183.469,180.174 190.206,170.200 192.075 C 166.116 192.841,98.993 192.840,96.464 192.075 C 89.086 189.843,87.057 179.194,93.062 174.225 C 96.309 171.538,94.962 171.628,132.429 171.613 C 172.494 171.598,170.461 171.897,174.624 165.389 C 177.105 161.511,178.130 153.271,176.464 150.600 C 176.033 149.908,176.008 149.990,176.283 151.200 M198.093 151.200 C 198.093 151.970,198.175 152.285,198.276 151.900 C 198.376 151.515,198.376 150.885,198.276 150.500 C 198.175 150.115,198.093 150.430,198.093 151.200 M298.128 156.000 C 298.128 157.430,298.201 158.015,298.289 157.300 C 298.378 156.585,298.378 155.415,298.289 154.700 C 298.201 153.985,298.128 154.570,298.128 156.000 M198.501 155.800 C 198.505 156.680,198.587 156.993,198.683 156.495 C 198.779 155.998,198.775 155.278,198.675 154.895 C 198.575 154.513,198.496 154.920,198.501 155.800 M228.440 160.049 C 228.398 161.146,229.922 165.011,230.263 164.670 C 230.371 164.563,230.174 163.923,229.826 163.250 C 229.478 162.577,229.033 161.345,228.837 160.513 C 228.550 159.294,228.473 159.204,228.440 160.049 M297.459 160.624 C 296.830 163.988,293.520 168.373,290.316 170.083 L 288.600 171.000 263.200 171.000 L 237.800 171.000 235.667 169.818 C 233.673 168.714,232.126 167.269,231.238 165.682 C 231.030 165.311,230.723 165.144,230.555 165.311 C 229.970 165.896,234.933 170.234,236.989 170.934 C 239.844 171.907,285.891 171.946,289.150 170.978 C 292.939 169.852,298.404 162.973,297.915 159.943 C 297.798 159.221,297.691 159.380,297.459 160.624 M197.622 162.888 C 197.354 164.270,196.857 166.262,196.516 167.316 C 196.176 168.369,195.994 169.327,196.112 169.445 C 196.230 169.563,196.621 168.646,196.981 167.407 C 197.784 164.644,198.517 160.783,198.282 160.549 C 198.187 160.453,197.890 161.506,197.622 162.888 M207.236 163.200 C 207.200 164.349,207.971 167.362,208.234 167.099 C 208.331 167.003,208.152 165.861,207.838 164.562 C 207.524 163.263,207.253 162.650,207.236 163.200 M318.446 164.867 C 318.421 165.234,318.296 165.864,318.170 166.267 C 317.952 166.962,317.963 166.963,318.397 166.287 C 318.648 165.896,318.773 165.266,318.673 164.887 C 318.511 164.268,318.488 164.266,318.446 164.867 M208.419 167.885 C 208.393 168.554,209.967 172.509,210.454 173.000 C 210.672 173.220,210.635 172.860,210.373 172.200 C 208.823 168.305,208.435 167.450,208.419 167.885 M317.239 168.860 C 316.709 170.380,316.688 170.682,317.148 170.180 C 317.531 169.762,318.117 167.600,317.847 167.600 C 317.754 167.600,317.481 168.167,317.239 168.860 M315.300 173.313 C 314.608 174.681,313.654 176.430,313.181 177.200 L 312.321 178.600 313.206 177.600 C 314.144 176.540,316.953 171.219,316.705 170.972 C 316.625 170.891,315.992 171.945,315.300 173.313 M212.196 176.392 C 215.601 182.976,224.935 189.954,233.400 192.243 C 238.111 193.517,288.349 193.397,293.087 192.101 C 300.559 190.056,309.514 184.053,312.142 179.327 C 312.365 178.927,311.029 180.140,309.173 182.023 C 302.813 188.477,296.939 191.416,288.400 192.414 C 280.768 193.306,236.785 192.724,233.137 191.683 C 224.929 189.339,217.635 184.048,213.324 177.309 C 211.855 175.012,211.212 174.489,212.196 176.392 M234.400 203.841 C 224.521 205.972,215.753 212.835,210.872 222.256 C 209.026 225.820,209.321 225.933,211.246 222.400 C 215.121 215.287,220.649 209.913,227.276 206.818 C 234.009 203.673,232.500 203.800,263.000 203.800 C 289.941 203.800,290.644 203.828,295.000 205.063 C 295.538 205.216,295.669 205.157,295.400 204.885 C 293.697 203.159,241.688 202.269,234.400 203.841 M299.056 206.766 C 307.079 210.570,313.201 217.262,316.814 226.177 C 317.444 227.730,317.966 228.730,317.974 228.400 C 318.144 221.972,302.378 205.084,296.326 205.211 C 296.037 205.217,297.265 205.917,299.056 206.766 M97.200 208.485 C 94.331 209.120,89.122 213.656,90.118 214.651 C 90.233 214.766,90.443 214.495,90.585 214.048 C 90.997 212.751,94.722 209.657,96.537 209.105 C 99.096 208.328,166.295 208.379,170.200 209.161 C 181.961 211.518,191.625 220.186,196.007 232.310 C 197.064 235.233,197.540 235.439,196.570 232.553 C 192.278 219.778,181.542 210.498,168.842 208.584 C 164.189 207.882,100.317 207.794,97.200 208.485 M89.222 216.717 C 88.937 217.777,88.827 224.501,88.896 236.658 L 89.000 255.000 99.572 255.107 C 107.764 255.190,110.217 255.099,110.466 254.707 C 110.643 254.428,110.791 248.749,110.794 242.087 L 110.800 229.974 139.100 230.087 L 167.400 230.200 169.118 231.150 C 172.868 233.223,175.661 237.243,176.588 241.901 C 176.893 243.434,177.141 244.093,177.162 243.426 C 177.323 238.419,172.366 231.475,167.615 230.052 C 166.557 229.735,157.797 229.600,138.254 229.600 L 110.400 229.600 110.400 241.567 C 110.400 248.149,110.291 253.819,110.157 254.167 C 109.908 254.816,91.432 255.171,89.833 254.557 C 89.102 254.277,88.879 220.067,89.587 217.011 C 90.074 214.912,89.773 214.670,89.222 216.717 M237.600 225.083 C 234.059 226.301,228.166 232.300,229.349 233.482 C 229.461 233.594,229.831 233.021,230.171 232.207 C 230.512 231.393,231.845 229.695,233.134 228.433 C 236.943 224.706,236.160 224.800,263.336 224.800 C 292.555 224.800,291.205 224.466,296.683 233.044 C 297.066 233.644,297.072 233.513,296.711 232.406 C 295.978 230.158,291.813 226.249,289.085 225.249 C 285.985 224.112,240.843 223.966,237.600 225.083 M208.229 228.783 C 207.663 230.575,207.215 232.437,207.234 232.921 C 207.253 233.404,207.597 232.540,207.999 231.000 C 208.401 229.460,208.931 227.680,209.176 227.045 C 209.422 226.409,209.540 225.807,209.440 225.707 C 209.340 225.607,208.795 226.991,208.229 228.783 M318.046 229.600 C 318.065 229.930,318.224 230.650,318.400 231.200 L 318.720 232.200 318.754 231.200 C 318.773 230.650,318.613 229.930,318.400 229.600 C 318.055 229.067,318.016 229.067,318.046 229.600 M319.132 234.800 C 319.812 241.403,319.430 296.876,318.684 299.950 C 318.290 301.573,318.048 302.982,318.147 303.081 C 318.360 303.293,318.563 302.627,319.272 299.400 C 319.978 296.188,320.020 235.263,319.317 233.400 C 318.937 232.393,318.908 232.618,319.132 234.800 M228.659 234.670 C 228.542 235.071,228.353 236.300,228.241 237.400 C 228.059 239.169,228.099 239.099,228.581 236.800 C 229.091 234.373,229.140 233.027,228.659 234.670 M297.256 234.600 C 297.256 235.040,297.411 235.760,297.600 236.200 L 297.944 237.000 297.944 236.200 C 297.944 235.760,297.789 235.040,297.600 234.600 L 297.256 233.800 297.256 234.600 M197.275 235.800 C 197.286 236.240,197.432 237.140,197.600 237.800 L 197.905 239.000 197.925 237.800 C 197.935 237.140,197.789 236.240,197.600 235.800 L 197.256 235.000 197.275 235.800 M206.650 236.450 C 206.311 238.146,206.386 295.622,206.728 296.485 C 206.878 296.862,207.000 283.227,207.000 266.185 C 207.000 249.143,206.978 235.200,206.950 235.200 C 206.923 235.200,206.788 235.763,206.650 236.450 M298.190 266.200 C 298.190 282.040,298.239 288.462,298.300 280.471 C 298.360 272.479,298.360 259.519,298.300 251.671 C 298.239 243.822,298.190 250.360,298.190 266.200 M198.093 240.400 C 198.093 241.170,198.175 241.485,198.276 241.100 C 198.376 240.715,198.376 240.085,198.276 239.700 C 198.175 239.315,198.093 239.630,198.093 240.400 M198.501 245.000 C 198.505 245.880,198.587 246.193,198.683 245.695 C 198.779 245.198,198.775 244.478,198.675 244.095 C 198.575 243.713,198.496 244.120,198.501 245.000 M176.662 247.615 C 175.686 256.950,170.966 260.116,157.600 260.400 L 148.200 260.600 148.102 271.000 C 148.049 276.720,148.139 281.580,148.302 281.800 C 148.495 282.058,152.143 282.123,158.600 281.983 L 168.600 281.766 158.500 281.683 L 148.400 281.600 148.400 271.232 L 148.400 260.863 157.900 260.732 L 167.400 260.600 169.544 259.413 C 172.242 257.918,174.169 255.724,175.698 252.406 C 176.737 250.151,177.709 245.200,177.113 245.200 C 177.003 245.200,176.800 246.287,176.662 247.615 M197.681 251.656 C 197.166 254.693,195.559 259.720,194.247 262.400 C 193.707 263.501,193.694 263.634,194.182 263.022 C 195.739 261.070,198.627 251.586,198.319 249.434 C 198.254 248.975,197.967 249.975,197.681 251.656 M113.700 260.676 C 114.085 260.776,114.715 260.776,115.100 260.676 C 115.485 260.575,115.170 260.493,114.400 260.493 C 113.630 260.493,113.315 260.575,113.700 260.676 M191.713 266.520 C 186.880 273.871,179.279 279.144,170.800 281.029 C 169.074 281.413,168.873 281.527,169.868 281.559 C 172.619 281.648,179.070 278.899,183.400 275.791 C 187.250 273.029,194.294 264.960,193.526 264.192 C 193.432 264.099,192.616 265.146,191.713 266.520 M89.200 281.209 C 89.200 281.438,89.478 281.732,89.817 281.862 C 90.755 282.222,90.866 281.833,89.982 281.281 C 89.487 280.972,89.200 280.946,89.200 281.209 M89.300 287.465 C 88.439 287.812,88.593 324.068,89.467 326.774 C 91.077 331.757,97.771 335.705,101.921 334.119 C 102.586 333.865,102.029 333.769,99.921 333.774 C 96.535 333.782,94.699 332.999,92.320 330.534 C 89.339 327.446,89.414 328.027,89.282 306.893 L 89.163 287.987 99.682 288.093 L 110.200 288.200 110.200 307.200 L 110.200 326.200 109.263 327.956 C 108.195 329.959,106.435 331.716,104.400 332.811 C 103.630 333.226,103.231 333.573,103.514 333.582 C 104.992 333.633,108.149 330.812,109.537 328.200 L 110.600 326.200 110.725 307.271 C 110.818 293.114,110.730 288.198,110.376 287.771 C 109.908 287.207,90.633 286.927,89.300 287.465 M228.260 295.200 C 228.386 296.410,228.644 297.670,228.832 298.000 C 229.314 298.842,229.254 298.175,228.598 295.400 L 228.031 293.000 228.260 295.200 M297.432 296.784 C 296.438 300.923,293.739 304.427,290.146 306.245 L 287.863 307.400 263.232 307.400 C 236.334 307.400,237.402 307.487,234.200 305.029 C 232.129 303.439,231.404 302.580,230.362 300.479 C 229.893 299.533,229.421 298.845,229.315 298.952 C 228.342 299.925,233.106 305.290,236.370 306.898 L 238.200 307.800 263.200 307.800 L 288.200 307.800 290.117 306.848 C 293.856 304.991,298.336 298.896,297.904 296.253 C 297.796 295.594,297.689 295.715,297.432 296.784 M207.246 299.400 C 207.199 300.311,207.982 303.352,208.206 303.127 C 208.287 303.046,208.114 301.994,207.821 300.790 C 207.528 299.585,207.270 298.960,207.246 299.400 M316.847 306.100 C 312.804 316.748,304.634 324.420,293.800 327.742 C 291.050 328.585,290.500 328.600,263.000 328.600 L 235.000 328.600 231.208 327.277 C 222.265 324.156,215.968 318.707,211.240 310.000 C 209.334 306.489,209.057 306.550,210.815 310.094 C 215.178 318.888,223.910 325.968,233.375 328.388 C 238.110 329.599,287.975 329.639,292.874 328.436 C 303.976 325.710,315.340 314.897,317.819 304.700 C 318.267 302.860,317.848 303.463,316.847 306.100 M208.426 304.400 C 208.427 304.730,208.699 305.450,209.031 306.000 L 209.633 307.000 209.368 306.000 C 208.984 304.548,208.424 303.597,208.426 304.400 " stroke="none" fill="#9cbbc7" fill-rule="evenodd"></path><path id="path4" d="M146.814 67.174 C 146.586 67.599,146.421 68.454,146.446 69.074 C 146.479 69.861,146.544 69.959,146.662 69.400 C 146.755 68.960,146.914 68.207,147.016 67.728 C 147.123 67.223,147.580 66.782,148.101 66.682 L 149.000 66.509 148.114 66.454 C 147.607 66.423,147.051 66.731,146.814 67.174 M190.500 66.676 C 190.885 66.776,191.515 66.776,191.900 66.676 C 192.285 66.575,191.970 66.493,191.200 66.493 C 190.430 66.493,190.115 66.575,190.500 66.676 M258.126 66.700 C 262.266 66.765,268.926 66.765,272.926 66.699 C 276.927 66.634,273.540 66.581,265.400 66.581 C 257.260 66.581,253.987 66.634,258.126 66.700 M234.507 67.176 C 233.577 67.328,232.677 67.591,232.507 67.762 C 232.208 68.063,233.971 67.831,236.800 67.195 C 238.585 66.794,236.937 66.780,234.507 67.176 M291.643 67.594 C 293.536 67.989,295.949 68.694,297.005 69.161 C 298.060 69.628,299.001 69.933,299.095 69.838 C 299.679 69.254,291.088 66.722,288.917 66.838 C 288.523 66.860,289.749 67.200,291.643 67.594 M115.400 67.610 C 114.866 67.847,115.198 67.886,116.400 67.727 C 117.390 67.596,118.275 67.424,118.367 67.344 C 118.714 67.043,116.164 67.272,115.400 67.610 M111.733 68.722 C 110.816 69.095,109.916 69.550,109.733 69.733 C 109.550 69.917,110.390 69.677,111.600 69.200 C 112.810 68.723,113.875 68.258,113.967 68.167 C 114.307 67.827,113.351 68.065,111.733 68.722 M229.600 68.600 C 228.353 69.313,228.949 69.313,230.800 68.600 C 231.717 68.247,231.924 68.055,231.400 68.045 C 230.960 68.036,230.150 68.286,229.600 68.600 M225.400 70.503 C 224.080 71.209,222.910 71.888,222.800 72.013 C 222.690 72.139,221.755 72.840,220.723 73.572 C 219.691 74.304,218.752 75.149,218.636 75.451 C 218.520 75.753,218.149 76.000,217.813 76.000 C 217.476 76.000,217.200 76.142,217.200 76.314 C 217.200 76.487,216.485 77.432,215.611 78.414 C 214.738 79.397,214.018 80.363,214.011 80.561 C 214.005 80.760,214.374 80.490,214.830 79.961 C 218.854 75.303,221.696 72.940,226.192 70.517 C 227.516 69.802,228.420 69.219,228.200 69.220 C 227.980 69.221,226.720 69.798,225.400 70.503 M105.093 72.214 C 104.272 72.772,103.600 73.315,103.600 73.420 C 103.600 73.525,104.320 73.135,105.200 72.553 C 106.597 71.628,107.070 71.200,106.693 71.200 C 106.634 71.200,105.914 71.656,105.093 72.214 M302.000 71.355 C 302.000 71.431,302.714 71.966,303.586 72.543 C 304.458 73.121,305.082 73.370,304.972 73.096 C 304.792 72.652,302.000 71.016,302.000 71.355 M101.404 75.008 C 100.527 75.773,99.996 76.400,100.226 76.400 C 100.455 76.400,101.254 75.770,102.000 75.000 C 103.731 73.214,103.456 73.218,101.404 75.008 M305.600 73.709 C 305.600 73.904,311.696 80.000,311.891 80.000 C 311.973 80.000,311.380 79.211,310.574 78.246 C 309.259 76.673,305.600 73.336,305.600 73.709 M198.948 79.200 C 198.948 81.510,199.014 82.455,199.095 81.300 C 199.176 80.145,199.176 78.255,199.095 77.100 C 199.014 75.945,198.948 76.890,198.948 79.200 M98.048 78.400 C 97.320 79.281,96.562 79.900,96.362 79.777 C 96.163 79.654,96.000 79.896,96.000 80.316 C 96.000 80.736,95.494 81.782,94.876 82.640 C 93.829 84.094,93.055 85.600,93.356 85.600 C 93.428 85.600,94.150 84.525,94.961 83.211 C 95.772 81.896,96.653 80.581,96.918 80.287 C 97.183 79.993,98.020 79.088,98.778 78.276 C 99.537 77.464,99.980 76.800,99.764 76.800 C 99.549 76.800,98.776 77.520,98.048 78.400 M212.614 82.235 C 212.241 82.804,212.005 83.338,212.089 83.422 C 212.173 83.507,212.558 83.041,212.944 82.388 C 213.806 80.928,213.548 80.809,212.614 82.235 M211.000 84.800 C 210.860 85.240,210.599 85.600,210.418 85.600 C 210.238 85.600,210.012 86.140,209.915 86.800 C 209.677 88.418,209.792 88.330,210.962 86.000 C 211.515 84.900,211.807 84.000,211.610 84.000 C 211.414 84.000,211.140 84.360,211.000 84.800 M315.488 86.082 C 316.083 87.337,316.632 88.301,316.708 88.225 C 316.919 88.014,315.769 85.504,315.046 84.600 C 314.695 84.160,314.894 84.827,315.488 86.082 M198.576 86.046 C 199.072 89.029,201.220 88.800,172.791 88.800 L 147.267 88.800 146.865 87.700 C 146.644 87.095,146.449 86.837,146.432 87.126 C 146.414 87.416,146.586 88.001,146.814 88.426 C 147.401 89.523,197.926 89.653,198.833 88.560 C 199.593 87.644,199.619 86.917,198.935 85.682 L 198.335 84.600 198.576 86.046 M91.665 88.617 C 90.995 90.088,91.123 90.402,91.847 89.065 C 92.186 88.440,92.388 87.854,92.296 87.763 C 92.205 87.671,91.921 88.056,91.665 88.617 M131.000 88.800 L 120.600 89.020 130.876 89.110 C 137.395 89.167,141.243 89.054,141.400 88.800 C 141.536 88.580,141.592 88.440,141.524 88.490 C 141.456 88.539,136.720 88.679,131.000 88.800 M208.818 89.166 C 208.573 89.625,208.539 90.000,208.743 90.000 C 209.154 90.000,209.722 88.788,209.442 88.508 C 209.344 88.411,209.064 88.707,208.818 89.166 M245.400 89.088 C 262.455 89.361,288.680 89.372,288.262 89.106 C 288.008 88.944,276.730 88.850,263.200 88.896 C 249.670 88.942,241.660 89.029,245.400 89.088 M236.400 89.800 C 235.094 90.547,235.551 90.555,237.254 89.816 C 237.994 89.494,238.330 89.231,238.000 89.230 C 237.670 89.229,236.950 89.486,236.400 89.800 M117.800 90.377 C 115.455 91.888,112.133 95.600,113.126 95.600 C 113.357 95.600,113.654 95.259,113.787 94.842 C 114.104 93.841,117.801 90.400,118.559 90.400 C 118.886 90.400,119.264 90.220,119.400 90.000 C 119.788 89.372,119.110 89.532,117.800 90.377 M289.400 90.000 C 289.536 90.220,289.910 90.400,290.231 90.400 C 290.552 90.400,292.016 91.601,293.484 93.069 C 294.952 94.537,295.776 95.209,295.317 94.564 C 293.416 91.895,287.979 87.701,289.400 90.000 M233.615 91.616 C 232.853 92.267,232.415 92.800,232.640 92.800 C 232.866 92.800,233.568 92.260,234.200 91.600 C 235.655 90.081,235.403 90.088,233.615 91.616 M317.862 91.600 C 317.998 92.370,318.262 93.270,318.448 93.600 C 318.652 93.961,318.688 93.643,318.538 92.800 C 318.402 92.030,318.138 91.130,317.952 90.800 C 317.748 90.439,317.712 90.757,317.862 91.600 M90.687 91.073 C 90.581 91.253,90.383 92.030,90.248 92.800 L 90.002 94.200 90.603 92.635 C 91.137 91.241,91.193 90.218,90.687 91.073 M231.201 94.198 C 230.686 94.748,230.365 95.298,230.488 95.421 C 230.612 95.545,231.105 95.096,231.584 94.423 C 232.638 92.942,232.473 92.845,231.201 94.198 M319.035 96.300 C 319.414 98.399,319.661 98.491,319.543 96.488 C 319.488 95.560,319.291 94.800,319.104 94.800 C 318.917 94.800,318.886 95.475,319.035 96.300 M89.467 95.467 C 89.320 95.613,89.215 96.198,89.234 96.767 C 89.268 97.781,89.275 97.779,89.621 96.620 C 89.985 95.403,89.931 95.002,89.467 95.467 M206.870 96.650 C 206.831 97.338,206.705 98.508,206.589 99.250 C 206.396 100.486,206.415 100.517,206.808 99.614 C 207.044 99.072,207.171 97.902,207.089 97.014 C 206.968 95.702,206.927 95.633,206.870 96.650 M319.693 100.000 C 319.693 100.770,319.775 101.085,319.876 100.700 C 319.976 100.315,319.976 99.685,319.876 99.300 C 319.775 98.915,319.693 99.230,319.693 100.000 M266.138 99.506 C 265.884 99.668,267.172 99.800,269.000 99.800 C 270.828 99.800,272.116 99.668,271.862 99.506 C 271.608 99.344,270.320 99.212,269.000 99.212 C 267.680 99.212,266.392 99.344,266.138 99.506 M297.497 101.800 C 297.618 103.340,297.861 104.960,298.036 105.400 C 298.420 106.367,297.996 101.418,297.573 100.000 C 297.409 99.450,297.375 100.260,297.497 101.800 M263.354 100.633 C 262.194 101.205,256.797 106.400,257.362 106.400 C 257.503 106.400,258.566 105.421,259.725 104.225 C 260.884 103.028,262.635 101.590,263.616 101.029 C 265.555 99.921,265.369 99.639,263.354 100.633 M273.599 100.551 C 274.149 100.872,274.674 101.059,274.766 100.967 C 275.014 100.719,274.714 100.530,273.600 100.233 L 272.600 99.967 273.599 100.551 M110.875 103.800 C 110.864 105.560,110.996 107.359,111.168 107.798 C 111.339 108.236,111.405 107.066,111.315 105.198 C 111.092 100.561,110.897 99.941,110.875 103.800 M228.262 102.301 C 227.919 104.445,227.966 156.333,228.312 157.920 C 228.470 158.646,228.600 146.091,228.600 130.020 C 228.600 113.949,228.578 100.800,228.551 100.800 C 228.524 100.800,228.394 101.475,228.262 102.301 M276.112 102.102 C 276.724 102.596,277.577 103.540,278.009 104.200 C 278.441 104.860,278.796 105.207,278.797 104.972 C 278.801 104.349,276.021 101.200,275.469 101.202 C 275.211 101.203,275.500 101.608,276.112 102.102 M279.249 106.809 C 279.854 108.600,280.195 108.948,279.828 107.400 C 279.671 106.740,279.371 106.024,279.161 105.809 C 278.950 105.594,278.990 106.044,279.249 106.809 M254.030 109.400 C 252.642 110.830,251.610 112.000,251.737 112.000 C 251.864 112.000,253.133 110.830,254.556 109.400 C 255.979 107.970,257.011 106.800,256.849 106.800 C 256.687 106.800,255.419 107.970,254.030 109.400 M319.026 107.974 C 318.585 109.854,315.085 113.295,312.789 114.105 C 311.805 114.453,311.322 114.751,311.716 114.768 C 314.316 114.883,319.982 109.474,319.509 107.328 C 319.401 106.839,319.243 107.051,319.026 107.974 M89.206 110.833 C 89.209 111.365,89.389 112.070,89.606 112.400 C 89.882 112.822,89.923 112.585,89.742 111.600 C 89.425 109.875,89.198 109.549,89.206 110.833 M300.400 111.062 C 300.400 111.500,301.399 112.466,302.400 112.996 C 302.730 113.170,302.640 112.972,302.200 112.556 C 301.760 112.140,301.175 111.541,300.900 111.224 C 300.625 110.906,300.400 110.834,300.400 111.062 M114.011 114.013 C 115.975 116.494,119.459 118.838,121.080 118.770 C 121.494 118.752,121.249 118.539,120.506 118.270 C 119.794 118.011,119.209 117.665,119.206 117.500 C 119.203 117.335,119.197 117.065,119.194 116.900 C 119.191 116.735,119.043 116.829,118.865 117.108 C 118.429 117.795,115.748 115.852,114.399 113.872 C 113.850 113.065,113.250 112.404,113.066 112.403 C 112.883 112.401,113.308 113.126,114.011 114.013 M249.578 113.891 C 248.811 114.722,248.636 115.032,249.184 114.591 C 251.110 113.041,251.745 112.400,251.354 112.400 C 251.136 112.400,250.337 113.071,249.578 113.891 M90.244 114.800 C 90.380 115.570,90.654 116.470,90.851 116.800 C 91.277 117.510,90.868 115.437,90.339 114.200 C 90.108 113.660,90.077 113.856,90.244 114.800 M305.000 114.400 C 305.136 114.620,305.642 114.787,306.124 114.772 C 306.969 114.745,306.971 114.731,306.200 114.400 C 305.099 113.927,304.708 113.927,305.000 114.400 M277.700 116.765 C 276.187 118.966,276.017 119.627,277.301 118.318 C 278.153 117.450,279.363 115.226,279.115 114.985 C 279.052 114.924,278.415 115.725,277.700 116.765 M307.900 115.082 C 308.395 115.178,309.205 115.178,309.700 115.082 C 310.195 114.987,309.790 114.909,308.800 114.909 C 307.810 114.909,307.405 114.987,307.900 115.082 M245.206 118.194 C 244.463 118.961,243.932 119.650,244.027 119.725 C 244.122 119.800,244.806 119.173,245.546 118.331 C 247.229 116.418,247.012 116.331,245.206 118.194 M91.418 118.500 C 91.568 118.995,91.855 119.576,92.056 119.791 C 92.257 120.006,92.219 119.601,91.972 118.891 C 91.465 117.438,90.997 117.108,91.418 118.500 M133.929 119.100 C 140.379 119.162,150.819 119.162,157.129 119.100 C 163.438 119.038,158.160 118.987,145.400 118.987 C 132.640 118.987,127.478 119.038,133.929 119.100 M281.300 119.097 C 282.785 119.174,285.215 119.174,286.700 119.097 C 288.185 119.020,286.970 118.957,284.000 118.957 C 281.030 118.957,279.815 119.020,281.300 119.097 M169.600 119.600 C 171.130 120.090,172.358 120.090,171.600 119.600 C 171.270 119.387,170.460 119.227,169.800 119.246 C 168.624 119.279,168.620 119.286,169.600 119.600 M289.633 119.344 C 289.725 119.424,290.610 119.596,291.600 119.727 C 292.802 119.886,293.134 119.847,292.600 119.610 C 291.836 119.272,289.286 119.043,289.633 119.344 M173.200 120.341 C 173.530 120.534,174.340 120.809,175.000 120.952 C 175.768 121.118,175.984 121.084,175.600 120.859 C 175.270 120.666,174.460 120.391,173.800 120.248 C 173.032 120.082,172.816 120.116,173.200 120.341 M294.046 120.180 C 294.181 120.314,294.889 120.596,295.619 120.805 C 296.349 121.015,296.778 121.032,296.573 120.845 C 296.148 120.456,293.671 119.804,294.046 120.180 M176.570 121.552 C 176.690 121.745,177.195 122.006,177.694 122.132 C 178.568 122.352,178.573 122.340,177.824 121.780 C 176.964 121.138,176.232 121.004,176.570 121.552 M240.684 122.923 C 239.908 123.871,239.064 125.419,238.810 126.364 C 238.204 128.613,238.523 128.909,239.175 126.703 C 239.673 125.018,241.192 122.655,242.384 121.713 C 242.726 121.442,242.799 121.220,242.548 121.213 C 242.300 121.206,241.461 121.975,240.684 122.923 M298.784 122.047 C 299.765 122.483,301.160 123.204,301.884 123.652 C 302.608 124.099,303.200 124.292,303.200 124.079 C 303.200 123.867,302.885 123.578,302.500 123.437 C 302.115 123.295,300.990 122.745,300.000 122.213 C 299.010 121.682,297.930 121.249,297.600 121.252 C 297.270 121.254,297.803 121.612,298.784 122.047 M93.200 122.240 C 93.200 122.672,95.134 125.600,95.419 125.600 C 95.524 125.600,95.134 124.835,94.551 123.900 C 93.281 121.860,93.200 121.761,93.200 122.240 M182.405 124.657 C 183.612 125.459,186.220 127.754,188.199 129.757 C 190.179 131.761,191.388 132.860,190.887 132.200 C 189.730 130.678,185.202 126.028,185.194 126.355 C 185.191 126.490,185.056 126.414,184.894 126.187 C 184.434 125.541,181.090 123.200,180.627 123.200 C 180.398 123.200,181.198 123.856,182.405 124.657 M303.600 124.353 C 303.600 124.546,304.275 125.192,305.100 125.787 C 306.598 126.867,306.598 126.867,305.477 125.833 C 304.859 125.264,304.465 124.619,304.600 124.399 C 304.736 124.180,304.567 124.000,304.224 124.000 C 303.881 124.000,303.600 124.159,303.600 124.353 M95.865 126.600 C 96.181 127.470,97.150 128.585,97.383 128.348 C 97.463 128.266,97.089 127.660,96.551 127.000 C 95.902 126.203,95.672 126.069,95.865 126.600 M308.443 128.753 C 309.410 129.826,310.459 130.824,310.776 130.969 C 311.093 131.114,310.463 130.255,309.376 129.060 C 308.289 127.864,307.240 126.867,307.043 126.843 C 306.847 126.819,307.477 127.679,308.443 128.753 M97.200 129.200 C 97.200 129.420,97.347 129.555,97.527 129.500 C 98.179 129.301,101.623 132.938,101.098 133.271 C 100.771 133.479,100.916 133.590,101.524 133.594 C 102.107 133.598,102.344 133.766,102.168 134.052 C 101.998 134.327,102.105 134.428,102.444 134.310 C 102.750 134.203,103.630 134.604,104.400 135.200 C 105.890 136.354,107.351 137.200,107.853 137.200 C 108.021 137.200,107.037 136.471,105.666 135.580 C 104.294 134.689,101.941 132.799,100.437 131.380 C 97.693 128.790,97.200 128.459,97.200 129.200 M238.646 132.800 C 238.777 133.570,239.045 134.371,239.242 134.580 C 239.747 135.116,239.650 134.474,238.973 132.800 L 238.407 131.400 238.646 132.800 M313.174 134.363 C 314.183 135.780,314.403 135.898,314.137 134.880 C 314.033 134.484,313.576 133.928,313.121 133.643 C 312.317 133.142,312.319 133.163,313.174 134.363 M239.613 135.473 C 239.606 135.734,241.035 137.463,242.790 139.317 C 244.544 141.170,245.849 142.831,245.690 143.008 C 245.530 143.184,245.601 143.214,245.847 143.074 C 246.454 142.727,247.755 144.225,247.377 144.837 C 247.179 145.157,247.244 145.220,247.566 145.021 C 247.886 144.823,250.683 147.312,255.590 152.159 C 259.734 156.252,263.338 159.600,263.600 159.600 C 263.862 159.600,263.359 159.001,262.483 158.269 C 260.234 156.390,241.573 137.650,240.507 136.200 C 240.022 135.540,239.620 135.213,239.613 135.473 M193.600 137.200 C 193.600 137.420,193.780 137.600,194.000 137.600 C 194.220 137.600,194.400 137.900,194.400 138.267 C 194.400 138.633,194.506 138.827,194.637 138.697 C 194.970 138.363,194.423 136.800,193.973 136.800 C 193.768 136.800,193.600 136.980,193.600 137.200 M111.020 138.772 C 111.229 138.976,111.940 139.255,112.600 139.391 C 113.796 139.639,113.795 139.637,112.454 139.020 C 110.919 138.313,110.472 138.235,111.020 138.772 M114.400 140.000 C 114.730 140.213,115.360 140.378,115.800 140.366 L 116.600 140.344 115.800 140.000 C 114.604 139.486,113.605 139.486,114.400 140.000 M316.845 141.100 C 317.297 142.457,317.600 142.768,317.600 141.876 C 317.600 141.589,317.332 141.004,317.005 140.576 C 316.462 139.866,316.448 139.911,316.845 141.100 M118.161 140.882 C 118.439 141.038,129.588 141.218,142.937 141.282 C 156.286 141.347,166.708 141.271,166.096 141.112 C 164.648 140.738,117.498 140.512,118.161 140.882 M276.400 140.980 C 276.400 141.079,276.946 141.969,277.613 142.957 C 278.280 143.946,279.078 145.440,279.385 146.277 C 279.692 147.115,279.956 147.602,279.972 147.360 C 280.022 146.579,279.100 144.232,278.282 143.059 C 277.098 141.360,277.813 141.125,283.600 141.308 C 286.350 141.395,288.060 141.338,287.400 141.181 C 286.084 140.867,276.400 140.690,276.400 140.980 M168.000 141.725 C 168.000 141.802,168.918 142.460,170.040 143.187 C 171.161 143.914,172.708 145.384,173.477 146.454 C 174.992 148.562,175.637 149.077,174.538 147.300 C 173.095 144.967,168.000 140.623,168.000 141.725 M289.000 142.000 C 289.136 142.220,289.452 142.400,289.702 142.400 C 290.673 142.400,293.340 144.657,294.834 146.743 C 295.695 147.946,296.400 148.745,296.400 148.519 C 296.400 148.032,295.150 146.324,293.433 144.465 C 291.925 142.832,288.252 140.789,289.000 142.000 M317.848 144.013 C 318.235 146.060,318.808 146.888,318.531 145.000 C 318.401 144.120,318.136 143.226,317.940 143.013 C 317.731 142.784,317.693 143.196,317.848 144.013 M197.076 145.000 C 197.210 145.660,197.461 146.560,197.634 147.000 L 197.949 147.800 197.957 147.000 C 197.961 146.560,197.709 145.660,197.398 145.000 L 196.833 143.800 197.076 145.000 M318.846 147.600 C 318.865 147.930,319.024 148.650,319.200 149.200 L 319.520 150.200 319.554 149.200 C 319.573 148.650,319.413 147.930,319.200 147.600 C 318.855 147.067,318.816 147.067,318.846 147.600 M175.419 149.801 C 175.575 150.460,175.857 151.168,176.045 151.373 C 176.232 151.578,176.215 151.149,176.005 150.419 C 175.518 148.718,175.044 148.219,175.419 149.801 M198.301 151.400 C 198.414 152.940,198.572 154.275,198.653 154.367 C 198.947 154.700,198.735 150.178,198.420 149.400 C 198.235 148.942,198.184 149.798,198.301 151.400 M279.286 153.061 C 279.039 153.865,278.996 154.360,279.190 154.161 C 279.582 153.761,280.189 151.600,279.910 151.600 C 279.814 151.600,279.532 152.258,279.286 153.061 M297.400 156.243 C 297.400 158.777,297.517 160.435,297.660 159.926 C 298.007 158.693,298.015 153.179,297.672 152.317 C 297.522 151.942,297.400 153.709,297.400 156.243 M277.814 155.835 C 277.441 156.404,277.227 156.961,277.339 157.072 C 277.450 157.183,277.829 156.718,278.181 156.037 C 278.959 154.533,278.744 154.415,277.814 155.835 M198.476 159.267 C 198.434 160.514,198.296 161.864,198.170 162.267 C 197.955 162.952,197.969 162.954,198.390 162.300 C 198.641 161.909,198.776 160.582,198.696 159.300 L 198.551 157.000 198.476 159.267 M275.200 158.600 C 274.455 159.150,274.032 159.600,274.260 159.600 C 274.489 159.600,275.199 159.150,275.838 158.600 C 277.338 157.311,276.948 157.310,275.200 158.600 M206.681 161.600 C 206.806 162.810,206.974 163.875,207.054 163.967 C 207.335 164.287,207.117 161.391,206.787 160.400 C 206.571 159.754,206.534 160.180,206.681 161.600 M272.200 160.000 C 271.429 160.331,271.431 160.345,272.276 160.372 C 272.758 160.387,273.264 160.220,273.400 160.000 C 273.692 159.527,273.301 159.527,272.200 160.000 M268.500 160.676 C 268.885 160.776,269.515 160.776,269.900 160.676 C 270.285 160.575,269.970 160.493,269.200 160.493 C 268.430 160.493,268.115 160.575,268.500 160.676 M175.482 161.900 C 175.189 163.423,175.422 163.485,175.933 162.020 C 176.167 161.349,176.209 160.800,176.026 160.800 C 175.843 160.800,175.598 161.295,175.482 161.900 M296.263 162.883 C 295.938 164.125,296.185 164.189,296.726 163.002 C 296.977 162.451,297.028 162.000,296.838 162.000 C 296.648 162.000,296.389 162.397,296.263 162.883 M319.254 162.600 C 319.219 163.040,319.089 163.850,318.967 164.400 C 318.775 165.263,318.807 165.303,319.198 164.690 C 319.447 164.299,319.577 163.489,319.486 162.890 C 319.378 162.179,319.297 162.079,319.254 162.600 M173.388 165.798 C 172.515 167.007,171.710 167.998,171.600 168.000 C 171.490 168.002,170.860 168.457,170.200 169.010 L 169.000 170.016 170.491 169.174 C 171.741 168.467,173.782 166.151,174.960 164.100 C 175.637 162.922,174.858 163.762,173.388 165.798 M197.338 166.000 C 197.107 166.866,197.058 167.488,197.228 167.383 C 197.582 167.164,198.158 164.825,197.917 164.584 C 197.830 164.497,197.569 165.134,197.338 166.000 M230.400 164.526 C 230.400 164.672,230.658 165.108,230.972 165.495 C 231.287 165.883,231.992 166.748,232.539 167.418 C 233.086 168.089,234.494 169.169,235.667 169.818 L 237.800 171.000 261.800 171.017 L 285.800 171.033 261.800 170.817 C 235.525 170.579,234.761 170.504,235.117 168.167 C 235.214 167.524,235.165 167.497,234.809 168.000 C 234.437 168.526,234.318 168.513,233.848 167.900 C 233.553 167.515,233.107 167.200,232.856 167.200 C 232.605 167.200,232.400 166.961,232.400 166.670 C 232.400 166.378,231.950 165.717,231.400 165.200 C 230.850 164.683,230.400 164.380,230.400 164.526 M294.146 166.198 C 294.019 166.526,293.755 166.696,293.558 166.574 C 293.361 166.452,293.200 166.606,293.200 166.914 C 293.200 167.223,292.840 167.802,292.400 168.200 C 291.960 168.598,291.600 168.784,291.600 168.613 C 291.600 168.442,291.330 168.526,291.000 168.800 C 290.670 169.074,290.400 169.477,290.400 169.695 C 290.400 170.095,292.259 169.033,293.000 168.209 C 293.220 167.964,293.836 167.277,294.370 166.682 C 294.903 166.087,295.122 165.600,294.857 165.600 C 294.592 165.600,294.272 165.869,294.146 166.198 M317.989 167.640 C 317.746 168.543,317.645 169.378,317.764 169.498 C 318.016 169.749,318.240 169.126,318.555 167.300 C 318.872 165.469,318.516 165.682,317.989 167.640 M207.630 166.800 C 207.633 167.130,207.891 167.940,208.202 168.600 L 208.767 169.800 208.530 168.600 C 208.232 167.098,207.621 165.875,207.630 166.800 M196.000 170.000 C 195.721 170.674,195.586 171.319,195.700 171.433 C 195.814 171.547,196.109 171.062,196.356 170.356 C 196.602 169.649,196.737 169.004,196.656 168.922 C 196.574 168.841,196.279 169.326,196.000 170.000 M287.896 170.384 C 287.068 170.544,286.258 170.810,286.096 170.973 C 285.722 171.350,288.794 170.813,289.600 170.361 C 290.290 169.974,289.989 169.978,287.896 170.384 M115.300 171.100 C 124.705 171.160,140.095 171.160,149.500 171.100 C 158.905 171.040,151.210 170.991,132.400 170.991 C 113.590 170.991,105.895 171.040,115.300 171.100 M96.000 171.618 C 95.562 171.915,95.724 171.952,96.600 171.756 C 98.071 171.427,98.390 171.198,97.367 171.206 C 96.945 171.209,96.330 171.395,96.000 171.618 M92.865 173.500 C 92.038 174.325,91.820 174.623,92.381 174.161 C 92.941 173.700,93.845 173.025,94.389 172.661 C 94.933 172.298,95.151 172.000,94.874 172.000 C 94.596 172.000,93.692 172.675,92.865 173.500 M209.600 172.247 C 209.600 172.467,209.864 172.996,210.187 173.424 C 210.510 173.851,210.775 174.020,210.775 173.800 C 210.775 173.580,210.510 173.051,210.187 172.624 C 209.864 172.196,209.600 172.027,209.600 172.247 M210.819 174.600 C 210.809 175.194,211.523 176.210,211.774 175.959 C 211.894 175.840,211.729 175.395,211.409 174.971 C 211.088 174.547,210.822 174.380,210.819 174.600 M89.798 177.204 C 88.810 179.395,89.194 179.517,90.241 177.345 C 90.703 176.385,90.956 175.600,90.802 175.600 C 90.648 175.600,90.196 176.322,89.798 177.204 M313.350 177.500 C 312.152 179.145,311.919 179.600,312.276 179.597 C 312.454 179.595,313.010 178.875,313.512 177.997 C 314.570 176.144,314.498 175.923,313.350 177.500 M189.227 181.371 C 188.725 181.906,188.379 182.511,188.457 182.717 C 188.536 182.923,188.997 182.486,189.482 181.746 C 190.527 180.149,190.463 180.055,189.227 181.371 M215.755 181.657 C 216.462 182.755,220.426 186.356,221.554 186.926 C 221.909 187.105,221.840 186.963,221.400 186.610 C 220.960 186.257,219.357 184.760,217.837 183.284 C 216.318 181.808,215.381 181.076,215.755 181.657 M308.000 183.841 C 307.010 184.844,305.080 186.405,303.711 187.310 C 302.342 188.215,301.293 189.026,301.380 189.113 C 301.648 189.382,306.302 186.064,308.022 184.379 C 308.917 183.501,309.816 182.886,310.020 183.012 C 310.224 183.138,310.284 182.962,310.153 182.621 C 309.856 181.848,310.104 181.708,308.000 183.841 M185.191 185.383 C 184.646 185.924,182.686 187.274,180.836 188.383 C 177.036 190.662,176.836 191.127,180.562 189.023 C 183.007 187.642,187.196 184.400,186.534 184.400 C 186.341 184.400,185.736 184.843,185.191 185.383 M89.205 185.716 C 89.174 187.722,95.219 193.715,96.241 192.692 C 96.333 192.600,95.700 192.206,94.833 191.815 C 92.947 190.965,91.613 189.625,90.233 187.200 C 89.670 186.210,89.207 185.542,89.205 185.716 M222.748 187.738 C 223.249 188.341,227.187 190.551,227.385 190.340 C 227.457 190.263,226.345 189.527,224.913 188.705 C 223.482 187.883,222.508 187.448,222.748 187.738 M175.800 191.014 C 174.795 191.498,174.763 191.553,175.600 191.351 C 176.150 191.219,176.771 190.950,176.980 190.755 C 177.498 190.271,177.214 190.333,175.800 191.014 M228.800 191.000 C 229.350 191.314,229.980 191.572,230.200 191.572 C 230.420 191.572,230.150 191.314,229.600 191.000 C 229.050 190.686,228.420 190.428,228.200 190.428 C 227.980 190.428,228.250 190.686,228.800 191.000 M296.600 191.014 C 295.940 191.317,295.670 191.566,296.000 191.568 C 296.330 191.570,297.050 191.314,297.600 191.000 C 298.865 190.277,298.189 190.287,296.600 191.014 M172.600 192.000 C 171.829 192.331,171.831 192.345,172.676 192.372 C 173.158 192.387,173.664 192.220,173.800 192.000 C 174.092 191.527,173.701 191.527,172.600 192.000 M231.420 191.980 C 231.629 192.188,232.610 192.461,233.600 192.586 L 235.400 192.814 233.400 192.224 C 230.971 191.509,230.946 191.506,231.420 191.980 M292.400 192.254 L 290.600 192.803 292.400 192.581 C 293.390 192.459,294.371 192.188,294.580 191.980 C 295.056 191.504,294.719 191.546,292.400 192.254 M97.676 193.260 C 98.865 193.595,165.816 193.588,167.377 193.253 C 168.025 193.114,152.399 193.000,132.654 193.000 C 112.908 193.000,97.168 193.117,97.676 193.260 M237.841 193.277 C 239.811 193.627,287.877 193.611,289.123 193.260 C 289.631 193.117,277.949 193.000,263.164 193.000 C 248.379 193.000,236.983 193.125,237.841 193.277 M251.300 203.100 C 257.625 203.162,267.975 203.162,274.300 203.100 C 280.625 203.038,275.450 202.987,262.800 202.987 C 250.150 202.987,244.975 203.038,251.300 203.100 M232.200 204.019 C 231.642 204.271,231.885 204.307,233.000 204.138 C 233.880 204.004,234.675 203.828,234.767 203.747 C 235.110 203.444,232.968 203.671,232.200 204.019 M291.633 203.743 C 292.076 204.122,294.417 204.351,294.196 203.994 C 294.062 203.777,293.393 203.600,292.710 203.600 C 292.026 203.600,291.542 203.664,291.633 203.743 M229.400 205.014 C 228.400 205.496,228.366 205.551,229.200 205.348 C 230.333 205.071,231.607 204.421,231.000 204.430 C 230.780 204.433,230.060 204.696,229.400 205.014 M295.400 204.703 C 295.620 204.920,296.340 205.212,297.000 205.354 C 298.377 205.649,297.615 205.077,296.000 204.603 C 295.343 204.411,295.137 204.445,295.400 204.703 M298.400 205.795 C 298.400 205.902,299.052 206.262,299.850 206.595 C 301.303 207.202,305.791 210.248,306.971 211.428 C 307.317 211.774,307.600 211.915,307.600 211.741 C 307.600 211.199,305.128 209.246,302.086 207.384 C 299.386 205.731,298.400 205.306,298.400 205.795 M165.664 208.010 C 166.484 208.442,170.592 208.829,170.169 208.435 C 169.966 208.245,168.749 208.009,167.464 207.909 C 166.180 207.810,165.370 207.855,165.664 208.010 M96.000 208.390 C 96.000 208.614,96.553 208.675,97.300 208.533 C 99.123 208.186,99.181 208.000,97.467 208.000 C 96.660 208.000,96.000 208.176,96.000 208.390 M92.945 210.123 C 91.193 211.474,89.190 214.371,89.215 215.516 C 89.223 215.892,89.683 215.262,90.238 214.115 C 90.842 212.867,91.920 211.514,92.923 210.744 C 95.250 208.959,95.424 208.796,94.980 208.823 C 94.771 208.836,93.855 209.421,92.945 210.123 M172.000 209.027 C 173.783 209.727,174.955 209.995,174.578 209.618 C 174.357 209.397,173.551 209.120,172.788 209.004 C 172.024 208.887,171.670 208.898,172.000 209.027 M220.770 209.863 L 219.800 210.927 221.100 209.988 C 222.452 209.012,222.625 208.800,222.070 208.800 C 221.888 208.800,221.303 209.279,220.770 209.863 M178.224 211.387 C 178.651 211.710,179.180 211.975,179.400 211.975 C 179.620 211.975,179.451 211.710,179.024 211.387 C 178.596 211.064,178.067 210.800,177.847 210.800 C 177.627 210.800,177.796 211.064,178.224 211.387 M183.000 214.084 C 184.464 215.132,190.313 220.946,191.567 222.600 L 192.476 223.800 191.738 222.549 C 190.177 219.902,183.330 213.180,182.229 213.213 C 181.993 213.220,182.340 213.612,183.000 214.084 M311.307 215.950 C 312.078 216.803,313.200 218.341,313.803 219.368 C 314.405 220.396,314.983 221.150,315.088 221.045 C 315.346 220.787,312.466 216.423,311.296 215.300 C 309.781 213.845,309.788 214.268,311.307 215.950 M211.232 220.739 C 210.579 221.960,210.714 222.300,211.441 221.263 C 211.793 220.760,211.988 220.254,211.873 220.140 C 211.759 220.025,211.470 220.295,211.232 220.739 M209.621 223.855 C 209.149 224.655,208.816 225.579,208.881 225.908 C 208.947 226.237,209.390 225.582,209.866 224.453 C 210.885 222.035,210.807 221.844,209.621 223.855 M316.867 225.220 C 317.101 225.892,317.367 226.367,317.457 226.276 C 317.656 226.078,316.901 224.000,316.631 224.000 C 316.527 224.000,316.633 224.549,316.867 225.220 M237.809 225.460 C 235.480 226.182,233.352 227.765,231.549 230.119 C 230.423 231.589,230.534 231.524,232.431 229.600 C 233.624 228.390,235.500 226.950,236.600 226.400 L 238.600 225.400 262.600 225.400 C 275.800 225.400,287.230 225.532,288.000 225.693 C 289.212 225.947,289.292 225.920,288.600 225.493 C 287.268 224.672,240.451 224.642,237.809 225.460 M290.000 226.180 C 290.000 226.295,290.720 226.865,291.600 227.447 C 292.480 228.030,293.200 228.709,293.200 228.957 C 293.200 229.205,293.560 229.632,294.000 229.907 C 295.348 230.749,294.890 229.774,293.235 228.280 C 291.677 226.872,290.000 225.784,290.000 226.180 M208.046 228.039 C 207.801 228.743,207.613 229.518,207.628 229.760 C 207.644 230.002,207.914 229.496,208.230 228.635 C 208.545 227.774,208.733 227.000,208.648 226.915 C 208.562 226.829,208.292 227.335,208.046 228.039 M317.848 227.800 C 317.991 228.460,318.266 229.270,318.459 229.600 C 318.684 229.984,318.718 229.768,318.552 229.000 C 318.409 228.340,318.134 227.530,317.941 227.200 C 317.716 226.816,317.682 227.032,317.848 227.800 M110.846 230.900 C 110.881 231.573,110.939 231.624,111.075 231.103 C 111.246 230.450,112.995 230.399,138.729 230.300 L 166.200 230.194 138.500 230.097 L 110.800 230.000 110.846 230.900 M196.067 231.220 C 196.301 231.892,196.567 232.367,196.657 232.276 C 196.856 232.078,196.101 230.000,195.831 230.000 C 195.727 230.000,195.833 230.549,196.067 231.220 M167.370 230.752 C 167.490 230.945,167.995 231.206,168.494 231.332 C 169.368 231.552,169.373 231.540,168.624 230.980 C 167.764 230.338,167.032 230.204,167.370 230.752 M207.044 231.653 C 206.667 233.479,206.350 236.983,206.582 236.751 C 206.848 236.485,207.569 231.080,207.369 230.853 C 207.297 230.772,207.151 231.132,207.044 231.653 M318.840 231.676 C 318.959 233.246,319.520 234.216,319.560 232.924 C 319.582 232.222,319.420 231.536,319.200 231.400 C 318.980 231.264,318.818 231.388,318.840 231.676 M170.041 231.838 C 170.063 232.037,171.008 233.010,172.141 234.000 C 173.273 234.990,173.840 235.356,173.400 234.812 C 171.967 233.044,169.978 231.283,170.041 231.838 M296.000 232.478 C 296.000 232.604,296.263 233.314,296.584 234.054 C 296.989 234.986,297.170 235.154,297.172 234.600 C 297.173 234.160,296.910 233.451,296.587 233.024 C 296.264 232.596,296.000 232.351,296.000 232.478 M196.863 233.400 C 196.862 233.620,197.103 234.430,197.400 235.200 C 197.697 235.970,197.945 236.330,197.952 236.000 C 197.958 235.670,197.717 234.860,197.414 234.200 C 197.112 233.540,196.864 233.180,196.863 233.400 M229.211 234.171 C 228.985 234.765,228.814 235.555,228.832 235.926 C 228.857 236.467,228.902 236.481,229.061 236.000 C 229.170 235.670,229.456 234.995,229.697 234.501 C 229.937 234.006,230.019 233.486,229.878 233.345 C 229.738 233.204,229.437 233.576,229.211 234.171 M297.400 266.200 C 297.400 283.014,297.522 296.462,297.672 296.085 C 297.821 295.708,297.944 282.260,297.944 266.200 C 297.944 250.140,297.821 236.692,297.672 236.315 C 297.522 235.938,297.400 249.386,297.400 266.200 M228.257 238.700 C 227.933 240.660,228.018 292.646,228.347 294.165 C 228.486 294.805,228.609 282.250,228.621 266.265 C 228.633 250.279,228.611 237.200,228.573 237.200 C 228.536 237.200,228.393 237.875,228.257 238.700 M198.296 240.683 C 198.521 243.842,198.732 244.258,198.762 241.600 C 198.776 240.390,198.640 239.167,198.460 238.883 C 198.276 238.594,198.204 239.389,198.296 240.683 M175.628 239.476 C 175.613 239.958,175.780 240.464,176.000 240.600 C 176.473 240.892,176.473 240.501,176.000 239.400 C 175.669 238.629,175.655 238.631,175.628 239.476 M198.476 248.467 C 198.434 249.714,198.296 251.064,198.170 251.467 C 197.955 252.152,197.969 252.154,198.390 251.500 C 198.641 251.109,198.776 249.782,198.696 248.500 L 198.551 246.200 198.476 248.467 M175.829 249.829 C 175.681 250.415,175.651 250.984,175.761 251.094 C 175.871 251.204,176.081 250.815,176.229 250.229 C 176.376 249.642,176.406 249.073,176.296 248.963 C 176.186 248.853,175.976 249.242,175.829 249.829 M110.928 251.600 C 110.928 253.030,111.001 253.615,111.089 252.900 C 111.178 252.185,111.178 251.015,111.089 250.300 C 111.001 249.585,110.928 250.170,110.928 251.600 M174.857 252.457 C 174.575 252.909,174.432 253.366,174.540 253.473 C 174.647 253.581,174.944 253.278,175.200 252.800 C 175.805 251.670,175.524 251.390,174.857 252.457 M171.933 256.442 C 170.686 257.735,169.977 258.626,170.358 258.423 C 171.079 258.037,174.400 254.574,174.400 254.209 C 174.400 253.890,174.357 253.929,171.933 256.442 M110.400 254.746 C 110.400 255.109,107.795 255.198,99.638 255.113 C 93.719 255.051,88.959 255.135,89.061 255.300 C 89.365 255.790,110.311 255.667,110.616 255.173 C 110.761 254.939,110.772 254.639,110.640 254.507 C 110.508 254.375,110.400 254.482,110.400 254.746 M167.600 259.431 L 166.600 260.033 167.600 259.772 C 168.150 259.628,168.771 259.350,168.980 259.155 C 169.591 258.584,168.714 258.759,167.600 259.431 M148.080 260.480 C 147.539 261.021,147.366 281.808,147.900 282.139 C 148.065 282.241,148.200 277.436,148.200 271.462 L 148.200 260.600 157.000 260.388 L 165.800 260.176 157.180 260.088 C 150.906 260.024,148.429 260.131,148.080 260.480 M89.043 261.033 C 88.382 262.754,88.790 281.494,89.500 282.051 C 90.126 282.542,90.145 282.530,89.681 281.936 C 89.278 281.421,89.188 278.928,89.281 270.836 C 89.346 265.096,89.374 260.399,89.343 260.400 C 89.311 260.400,89.176 260.685,89.043 261.033 M142.394 262.719 L 142.587 265.000 142.718 263.044 C 142.790 261.969,142.703 260.942,142.524 260.763 C 142.346 260.584,142.287 261.464,142.394 262.719 M194.057 263.257 C 193.775 263.709,193.632 264.166,193.740 264.273 C 193.847 264.381,194.144 264.078,194.400 263.600 C 195.005 262.470,194.724 262.190,194.057 263.257 M192.233 266.500 C 191.143 268.170,191.142 268.184,192.124 267.266 C 192.925 266.518,193.837 264.800,193.434 264.800 C 193.383 264.800,192.843 265.565,192.233 266.500 M142.399 274.881 C 142.290 278.776,142.339 281.822,142.510 281.651 C 142.680 281.480,142.770 278.294,142.709 274.570 L 142.598 267.800 142.399 274.881 M187.588 272.267 C 186.165 273.734,185.540 274.500,186.200 273.969 C 187.431 272.980,190.634 269.600,190.340 269.600 C 190.250 269.600,189.012 270.800,187.588 272.267 M182.800 276.245 C 181.244 277.404,177.493 279.420,175.600 280.116 C 175.067 280.312,175.067 280.339,175.600 280.360 C 176.482 280.393,179.071 279.139,181.789 277.362 C 185.038 275.238,185.001 275.265,184.788 275.075 C 184.685 274.982,183.790 275.509,182.800 276.245 M159.000 282.000 L 149.400 282.222 159.200 282.271 C 164.590 282.298,169.450 282.176,170.000 282.000 C 170.958 281.693,170.950 281.682,169.800 281.729 C 169.140 281.756,164.280 281.878,159.000 282.000 M99.989 287.190 L 110.177 287.400 110.683 288.400 C 111.029 289.085,111.190 289.188,111.194 288.729 C 111.210 286.901,110.554 286.795,99.871 286.890 L 89.800 286.979 99.989 287.190 M206.676 298.200 C 206.809 299.520,207.055 300.960,207.224 301.400 C 207.392 301.840,207.429 301.120,207.306 299.800 C 207.183 298.480,206.937 297.040,206.759 296.600 C 206.576 296.148,206.540 296.843,206.676 298.200 M319.249 299.000 C 319.216 299.440,319.096 300.250,318.983 300.800 L 318.777 301.800 319.206 300.819 C 319.442 300.279,319.561 299.469,319.472 299.019 C 319.313 298.221,319.307 298.221,319.249 299.000 M230.674 301.130 C 231.483 302.611,234.025 305.308,234.328 305.006 C 234.435 304.899,234.061 304.449,233.498 304.006 C 232.796 303.453,232.527 302.918,232.642 302.300 C 232.734 301.805,232.697 301.639,232.560 301.932 C 232.383 302.312,231.974 302.083,231.130 301.132 L 229.948 299.800 230.674 301.130 M295.200 301.167 C 295.200 301.369,294.480 302.284,293.600 303.200 C 291.911 304.958,291.414 305.853,292.844 304.562 C 294.245 303.297,296.097 300.800,295.634 300.800 C 295.395 300.800,295.200 300.965,295.200 301.167 M207.612 303.000 C 207.612 303.440,207.787 304.070,208.000 304.400 C 208.321 304.897,208.388 304.862,208.388 304.200 C 208.388 303.760,208.213 303.130,208.000 302.800 C 207.679 302.303,207.612 302.338,207.612 303.000 M318.040 303.840 C 317.810 304.673,317.694 305.427,317.782 305.515 C 317.870 305.603,318.130 304.993,318.360 304.160 C 318.590 303.327,318.706 302.573,318.618 302.485 C 318.530 302.397,318.270 303.007,318.040 303.840 M237.400 306.870 C 238.465 307.575,288.101 307.659,288.803 306.957 C 289.127 306.633,288.628 306.611,286.945 306.875 C 284.123 307.317,238.516 307.127,237.400 306.669 L 236.600 306.340 237.400 306.870 M209.833 308.800 C 210.130 309.914,210.319 310.214,210.567 309.966 C 210.659 309.874,210.472 309.349,210.151 308.799 L 209.567 307.800 209.833 308.800 M314.857 311.257 C 314.575 311.709,314.432 312.166,314.540 312.273 C 314.647 312.381,314.944 312.078,315.200 311.600 C 315.805 310.470,315.524 310.190,314.857 311.257 M212.000 313.171 C 212.000 313.376,212.261 313.804,212.581 314.124 C 212.900 314.443,213.050 314.816,212.914 314.952 C 212.778 315.089,212.972 315.200,213.345 315.200 C 213.937 315.200,213.910 315.047,213.137 314.000 C 212.191 312.721,212.000 312.582,212.000 313.171 M312.538 314.894 C 310.371 317.845,310.078 318.461,311.715 316.622 C 313.113 315.051,314.613 312.800,314.260 312.800 C 314.158 312.800,313.383 313.742,312.538 314.894 M215.200 317.297 C 215.200 317.875,220.559 322.756,222.500 323.946 C 224.644 325.260,224.356 324.681,222.100 323.142 C 221.055 322.429,219.075 320.772,217.700 319.460 C 216.325 318.147,215.200 317.174,215.200 317.297 M308.575 319.641 C 307.929 320.323,306.275 321.689,304.900 322.676 C 302.480 324.413,301.372 325.565,303.400 324.237 C 303.950 323.876,304.400 323.660,304.400 323.757 C 304.400 323.853,305.433 322.970,306.695 321.796 C 308.095 320.493,309.095 319.829,309.259 320.095 C 309.437 320.383,309.769 320.288,310.245 319.812 C 310.935 319.122,310.925 319.106,309.984 319.405 C 309.109 319.683,309.064 319.646,309.552 319.058 C 310.485 317.933,309.810 318.336,308.575 319.641 M110.914 321.800 C 110.917 322.900,110.995 323.303,111.087 322.695 C 111.179 322.086,111.177 321.186,111.082 320.695 C 110.987 320.203,110.911 320.700,110.914 321.800 M224.400 325.016 C 224.400 325.348,230.098 328.001,230.789 327.991 C 231.125 327.985,230.363 327.554,229.095 327.033 C 227.827 326.512,226.348 325.796,225.809 325.442 C 224.783 324.770,224.400 324.654,224.400 325.016 M299.800 325.831 C 298.920 326.357,298.342 326.790,298.516 326.793 C 298.954 326.803,302.000 325.228,302.000 324.992 C 302.000 324.643,301.418 324.864,299.800 325.831 M109.395 328.410 C 108.722 329.904,106.827 331.906,104.968 333.089 C 104.222 333.563,104.223 333.570,105.000 333.332 C 106.732 332.799,110.995 327.662,110.290 326.957 C 110.200 326.866,109.797 327.520,109.395 328.410 M296.400 327.400 C 295.850 327.714,295.580 327.972,295.800 327.972 C 296.020 327.972,296.650 327.714,297.200 327.400 C 297.750 327.086,298.020 326.828,297.800 326.828 C 297.580 326.828,296.950 327.086,296.400 327.400 M232.038 328.398 C 232.390 328.603,233.470 328.870,234.438 328.992 L 236.200 329.214 234.200 328.624 C 231.893 327.945,231.126 327.864,232.038 328.398 M293.000 328.400 C 292.229 328.731,292.231 328.745,293.076 328.772 C 293.558 328.787,294.064 328.620,294.200 328.400 C 294.492 327.927,294.101 327.927,293.000 328.400 M90.344 329.495 C 90.927 330.585,94.291 333.604,94.891 333.576 C 95.171 333.564,95.040 333.339,94.600 333.076 C 94.160 332.814,92.931 331.732,91.870 330.670 C 90.808 329.609,90.122 329.080,90.344 329.495 M250.700 329.500 C 257.135 329.562,267.665 329.562,274.100 329.500 C 280.535 329.438,275.270 329.387,262.400 329.387 C 249.530 329.387,244.265 329.438,250.700 329.500 M95.790 333.984 C 95.932 334.213,96.517 334.400,97.090 334.400 C 98.344 334.400,98.199 334.208,96.666 333.840 C 95.923 333.662,95.621 333.711,95.790 333.984 M102.200 334.000 C 101.486 334.307,101.515 334.347,102.476 334.372 C 103.068 334.387,103.664 334.220,103.800 334.000 C 104.095 333.522,103.311 333.522,102.200 334.000 " stroke="none" fill="#cae4ef" fill-rule="evenodd"></path></g></svg>